<svg width="28" height="28" viewBox="0 0 28 28" fill="none" xmlns="http://www.w3.org/2000/svg">
<path d="M5.28062 14.5995L27.5625 14.5815C27.6785 14.5815 27.7898 14.5354 27.8719 14.4534C27.9539 14.3714 28 14.2601 28 14.144C28 14.028 27.9539 13.9167 27.8719 13.8347C27.7898 13.7526 27.6785 13.7065 27.5625 13.7065L5.28019 13.7245C5.16416 13.7245 5.05288 13.7706 4.97083 13.8526C4.88878 13.9347 4.84269 14.0459 4.84269 14.162C4.84269 14.278 4.88878 14.3893 4.97083 14.4713C5.05288 14.5534 5.16459 14.5995 5.28062 14.5995Z" fill="white"/>
<path d="M1.23978e-05 14.1672C2.48545 15.0859 5.56982 16.6574 7.48126 18.3234L5.97364 14.1619L7.47558 10C5.56589 11.6682 2.48414 13.2432 1.23978e-05 14.1672Z" fill="white"/>
</svg>
