<svg width="10" height="10" viewBox="0 0 10 10" fill="none" xmlns="http://www.w3.org/2000/svg">
<path d="M0.00505638 0.2011C0.00655651 0.1935 0.0093565 0.1865 0.0115557 0.1792C0.0140562 0.1709 0.0158567 0.1625 0.0192566 0.1545C0.0228567 0.1458 0.0278559 0.1378 0.0323563 0.1296C0.035656 0.1236 0.0383558 0.1173 0.0421562 0.1115C0.0604601 0.0839949 0.0840511 0.0604041 0.111556 0.0421C0.117256 0.0383 0.123356 0.0358 0.129256 0.0325C0.137556 0.0279 0.145657 0.0229 0.154556 0.0192C0.162457 0.0159 0.170756 0.0141 0.178956 0.0116C0.186357 0.0094 0.193457 0.0065 0.201157 0.005C0.21728 0.00169426 0.233697 1.91626e-05 0.250156 0L5.58156 0C5.64786 0 5.71145 0.0263392 5.75833 0.0732233C5.80522 0.120107 5.83156 0.183696 5.83156 0.25C5.83156 0.316304 5.80522 0.379893 5.75833 0.426777C5.71145 0.473661 5.64786 0.5 5.58156 0.5H0.853657L9.92696 9.5732C9.96203 9.60813 9.98593 9.65268 9.99564 9.70122C10.0053 9.74975 10.0004 9.80007 9.98147 9.8458C9.96253 9.89153 9.93043 9.9306 9.88925 9.95805C9.84806 9.9855 9.79965 10.0001 9.75016 10C9.68616 10 9.62216 9.9756 9.57336 9.9268L0.500156 0.8535V5.5813C0.500156 5.6476 0.473817 5.71119 0.426933 5.75808C0.380049 5.80496 0.316461 5.8313 0.250156 5.8313C0.183852 5.8313 0.120263 5.80496 0.0733795 5.75808C0.026495 5.71119 0.000156403 5.6476 0.000156403 5.5813V0.25C0.000185966 0.233579 0.00182724 0.2172 0.00505638 0.2011Z" fill="#022858"/>
</svg>
