<svg width="34" height="24" viewBox="0 0 44 34" fill="none" xmlns="http://www.w3.org/2000/svg">
<path d="M38.6364 14.5562C37.6621 14.1286 36.6095 13.9082 35.5455 13.9091H7.72727C6.66333 13.9081 5.61078 14.1281 4.63636 14.5553C3.25917 15.1575 2.08727 16.148 1.26389 17.4055C0.440505 18.6631 0.001316 20.1332 0 21.6364V32.4545C0 32.8644 0.162824 33.2575 0.452653 33.5473C0.742482 33.8372 1.13557 34 1.54545 34C1.95533 34 2.34843 33.8372 2.63826 33.5473C2.92809 33.2575 3.09091 32.8644 3.09091 32.4545V31.6818C3.09341 31.4777 3.17563 31.2826 3.32001 31.1382C3.46438 30.9938 3.65947 30.9116 3.86364 30.9091H39.4091C39.6133 30.9116 39.8083 30.9938 39.9527 31.1382C40.0971 31.2826 40.1793 31.4777 40.1818 31.6818V32.4545C40.1818 32.8644 40.3446 33.2575 40.6345 33.5473C40.9243 33.8372 41.3174 34 41.7273 34C42.1372 34 42.5302 33.8372 42.8201 33.5473C43.1099 33.2575 43.2727 32.8644 43.2727 32.4545V21.6364C43.2712 20.1334 42.8319 18.6634 42.0086 17.4061C41.1852 16.1487 40.0134 15.1584 38.6364 14.5562ZM33.2273 0H10.0455C8.61088 0 7.23505 0.569885 6.22065 1.58429C5.20625 2.59869 4.63636 3.97451 4.63636 5.40909V12.3636C4.63641 12.4235 4.65036 12.4826 4.67713 12.5361C4.7039 12.5897 4.74275 12.6363 4.79062 12.6722C4.83848 12.7082 4.89405 12.7325 4.95294 12.7434C5.01183 12.7542 5.07242 12.7512 5.12994 12.7345C5.97363 12.4878 6.84825 12.3629 7.72727 12.3636H8.13585C8.23122 12.3642 8.32344 12.3296 8.39477 12.2663C8.46609 12.2029 8.51149 12.1155 8.52222 12.0207C8.60651 11.2656 8.96601 10.5679 9.53207 10.061C10.0981 9.55413 10.8311 9.2735 11.5909 9.27273H17C17.7603 9.27279 18.494 9.5531 19.0607 10.0601C19.6273 10.567 19.9872 11.2651 20.0716 12.0207C20.0823 12.1155 20.1277 12.2029 20.199 12.2663C20.2704 12.3296 20.3626 12.3642 20.458 12.3636H22.8206C22.9159 12.3642 23.0082 12.3296 23.0795 12.2663C23.1508 12.2029 23.1962 12.1155 23.2069 12.0207C23.2912 11.2661 23.6503 10.5688 24.2157 10.062C24.7812 9.55516 25.5134 9.27421 26.2727 9.27273H31.6818C32.4422 9.27279 33.1758 9.5531 33.7425 10.0601C34.3091 10.567 34.6691 11.2651 34.7534 12.0207C34.7641 12.1155 34.8095 12.2029 34.8809 12.2663C34.9522 12.3296 35.0444 12.3642 35.1398 12.3636H35.5455C36.4245 12.3632 37.2991 12.4884 38.1428 12.7355C38.2004 12.7521 38.2611 12.7552 38.32 12.7443C38.379 12.7334 38.4346 12.709 38.4825 12.6729C38.5304 12.6368 38.5692 12.5901 38.5959 12.5364C38.6226 12.4827 38.6365 12.4236 38.6364 12.3636V5.40909C38.6364 3.97451 38.0665 2.59869 37.0521 1.58429C36.0377 0.569885 34.6619 0 33.2273 0Z" fill="#022858"/>
</svg>
