<svg width="40" height="40" viewBox="0 0 40 40" fill="none" xmlns="http://www.w3.org/2000/svg">
<path d="M23.3333 14.8491L38.0167 17.7658C39.2 18.0158 40 19.0158 40 20.1991V37.1991C40 38.5825 38.8833 39.6991 37.5 39.6991H22.5C22.9667 39.6991 23.3333 39.3325 23.3333 38.8658V38.0325H37.5C37.95 38.0325 38.3333 37.6658 38.3333 37.1991V20.1991C38.3333 19.8158 38.0667 19.4658 37.6833 19.3825L23.3333 16.5491V14.8491Z" fill="#022858"/>
<path d="M32.5 23.0324C32.9667 23.0324 33.3333 23.3991 33.3333 23.8658C33.3333 24.3324 32.9667 24.6991 32.5 24.6991H29.1667C28.7 24.6991 28.3333 24.3324 28.3333 23.8658C28.3333 23.3991 28.7 23.0324 29.1667 23.0324H32.5ZM32.5 28.0324C32.9667 28.0324 33.3333 28.3991 33.3333 28.8658C33.3333 29.3324 32.9667 29.6991 32.5 29.6991H29.1667C28.7 29.6991 28.3333 29.3324 28.3333 28.8658C28.3333 28.3991 28.7 28.0324 29.1667 28.0324H32.5ZM32.5 33.0324C32.9667 33.0324 33.3333 33.3991 33.3333 33.8658C33.3333 34.3324 32.9667 34.6991 32.5 34.6991H29.1667C28.7 34.6991 28.3333 34.3324 28.3333 33.8658C28.3333 33.3991 28.7 33.0324 29.1667 33.0324H32.5ZM23.3333 38.8658C23.3333 39.3324 22.9667 39.6991 22.5 39.6991C22.0333 39.6991 21.6667 39.3324 21.6667 38.8658V15.5324C21.6667 15.2824 21.7833 15.0491 21.9667 14.8824C22.1667 14.7324 22.4167 14.6658 22.6667 14.7158L23.3333 14.8491V38.0324V38.8658Z" fill="#022858"/>
<path d="M21.6667 38.0325V38.8658C21.6667 39.3325 22.0333 39.6991 22.5 39.6991H15.8333C16.3 39.6991 16.6667 39.3325 16.6667 38.8658V38.0325H21.6667ZM17.5 8.03247C17.9667 8.03247 18.3333 8.39914 18.3333 8.8658C18.3333 9.33247 17.9667 9.69914 17.5 9.69914H14.1667C13.7 9.69914 13.3333 9.33247 13.3333 8.8658C13.3333 8.39914 13.7 8.03247 14.1667 8.03247H17.5ZM18.3333 13.8658C18.3333 14.3325 17.9667 14.6991 17.5 14.6991H14.1667C13.7 14.6991 13.3333 14.3325 13.3333 13.8658C13.3333 13.3991 13.7 13.0325 14.1667 13.0325H17.5C17.9667 13.0325 18.3333 13.3991 18.3333 13.8658ZM17.5 18.0325C17.9667 18.0325 18.3333 18.3991 18.3333 18.8658C18.3333 19.3325 17.9667 19.6991 17.5 19.6991H14.1667C13.7 19.6991 13.3333 19.3325 13.3333 18.8658C13.3333 18.3991 13.7 18.0325 14.1667 18.0325H17.5ZM17.5 23.0325C17.9667 23.0325 18.3333 23.3991 18.3333 23.8658C18.3333 24.3325 17.9667 24.6991 17.5 24.6991H14.1667C13.7 24.6991 13.3333 24.3325 13.3333 23.8658C13.3333 23.3991 13.7 23.0325 14.1667 23.0325H17.5ZM10 23.8658C10 24.3325 9.63333 24.6991 9.16667 24.6991H5.83333C5.36667 24.6991 5 24.3325 5 23.8658C5 23.3991 5.36667 23.0325 5.83333 23.0325H9.16667C9.63333 23.0325 10 23.3991 10 23.8658ZM9.16667 8.03247C9.63333 8.03247 10 8.39914 10 8.8658C10 9.33247 9.63333 9.69914 9.16667 9.69914H5.83333C5.36667 9.69914 5 9.33247 5 8.8658C5 8.39914 5.36667 8.03247 5.83333 8.03247H9.16667ZM9.16667 13.0325C9.63333 13.0325 10 13.3991 10 13.8658C10 14.3325 9.63333 14.6991 9.16667 14.6991H5.83333C5.36667 14.6991 5 14.3325 5 13.8658C5 13.3991 5.36667 13.0325 5.83333 13.0325H9.16667ZM9.16667 18.0325C9.63333 18.0325 10 18.3991 10 18.8658C10 19.3325 9.63333 19.6991 9.16667 19.6991H5.83333C5.36667 19.6991 5 19.3325 5 18.8658C5 18.3991 5.36667 18.0325 5.83333 18.0325H9.16667ZM15 30.5325C15 30.0658 14.6167 29.6991 14.1667 29.6991H9.16667C8.7 29.6991 8.33333 30.0658 8.33333 30.5325V38.0325H6.66667V30.5325C6.66667 29.1491 7.78333 28.0325 9.16667 28.0325H14.1667C15.55 28.0325 16.6667 29.1491 16.6667 30.5325V38.0325H15V30.5325Z" fill="#022858"/>
<path d="M8.33332 38.0325H16.6667V38.8658C16.6667 39.3325 16.3 39.6991 15.8333 39.6991H7.49999C7.03332 39.6991 6.66666 39.3325 6.66666 38.8658V38.0325H8.33332Z" fill="#022858"/>
<path d="M2.91667 0.0324483L21.2333 2.81578C22.45 3.01578 23.3333 4.04911 23.3333 5.28245V14.8491L22.6667 14.7158C22.4167 14.6658 22.1667 14.7324 21.9667 14.8824C21.7833 15.0491 21.6667 15.2824 21.6667 15.5324V5.28245C21.6667 4.86578 21.3667 4.51578 20.9667 4.44911L2.65 1.68245C2.6 1.66578 2.55 1.66578 2.5 1.66578C2.3 1.66578 2.11667 1.73245 1.96667 1.86578C1.76667 2.03245 1.66667 2.24911 1.66667 2.49911V37.1991C1.66667 37.6658 2.05 38.0324 2.5 38.0324H6.66667V38.8658C6.66667 39.3324 7.03333 39.6991 7.5 39.6991H2.5C1.11667 39.6991 0 38.5824 0 37.1991V2.49911C0 1.76578 0.316667 1.06578 0.883333 0.599115C1.45 0.115782 2.18333 -0.0842184 2.91667 0.0324483Z" fill="#022858"/>
</svg>
