<svg width="25" height="26" viewBox="0 0 25 26" fill="none" xmlns="http://www.w3.org/2000/svg">
<path d="M4.32324 23.3397C4.7657 23.3412 5.1918 23.1725 5.51336 22.8686C5.83492 22.5647 6.02732 22.1488 6.05075 21.7069C6.07419 21.2651 5.92686 20.8311 5.63925 20.4949C5.35164 20.1587 4.94577 19.9459 4.50564 19.9006C4.66435 19.6383 4.7505 19.3386 4.75525 19.0322C4.76001 18.7257 4.6832 18.4235 4.5327 18.1564C4.38219 17.8894 4.16341 17.6672 3.89875 17.5126C3.6341 17.358 3.3331 17.2765 3.02659 17.2765C2.72008 17.2765 2.41907 17.358 2.15442 17.5126C1.88977 17.6672 1.67098 17.8894 1.52048 18.1564C1.36998 18.4235 1.29317 18.7257 1.29792 19.0322C1.30268 19.3386 1.38882 19.6383 1.54754 19.9006C1.1074 19.9459 0.701535 20.1587 0.413927 20.4949C0.12632 20.8311 -0.0210114 21.2651 0.00242163 21.7069C0.0258547 22.1488 0.218259 22.5647 0.539817 22.8686C0.861375 23.1725 1.28747 23.3412 1.72993 23.3397C2.03517 23.3372 2.33397 23.2518 2.59437 23.0925V25.0686H3.45881V23.0925C3.7192 23.2518 4.01801 23.3372 4.32324 23.3397ZM20.7475 18.1531H23.3409V25.0686H20.7475V18.1531ZM20.7475 15.5598H24.2053V17.2887H20.7475V15.5598Z" fill="#022858"/>
<path d="M4.32324 16.774C4.76911 17.027 5.12876 17.408 5.35563 17.8678C5.58249 18.3275 5.66612 18.8448 5.59569 19.3526C6.09453 19.6342 6.4861 20.073 6.70927 20.6006C6.93245 21.1281 6.97467 21.7147 6.82935 22.2688C6.68403 22.8229 6.35934 23.3133 5.90597 23.6634C5.45261 24.0135 4.89607 24.2037 4.32324 24.2042V25.0687H9.07764V19.0176H11.671V25.0687H12.5354V19.0176H15.1287V25.0687H19.8831V0H4.32324V16.774ZM16.4254 1.72887H18.1542V4.32219H16.4254V1.72887ZM16.4254 6.05106H18.1542V8.64437H16.4254V6.05106ZM16.4254 10.3732H18.1542V12.9666H16.4254V10.3732ZM16.4254 14.6954H18.1542V17.2887H16.4254V14.6954ZM12.9676 1.72887H14.6965V4.32219H12.9676V1.72887ZM12.9676 6.05106H14.6965V8.64437H12.9676V6.05106ZM12.9676 10.3732H14.6965V12.9666H12.9676V10.3732ZM12.9676 14.6954H14.6965V17.2887H12.9676V14.6954ZM9.50986 1.72887H11.2387V4.32219H9.50986V1.72887ZM9.50986 6.05106H11.2387V8.64437H9.50986V6.05106ZM9.50986 10.3732H11.2387V12.9666H9.50986V10.3732ZM9.50986 14.6954H11.2387V17.2887H9.50986V14.6954ZM6.05212 1.72887H7.78099V4.32219H6.05212V1.72887ZM6.05212 6.05106H7.78099V8.64437H6.05212V6.05106ZM6.05212 10.3732H7.78099V12.9666H6.05212V10.3732ZM6.05212 14.6954H7.78099V17.2887H6.05212V14.6954Z" fill="#022858"/>
</svg>
