<svg width="24" height="18" viewBox="0 0 24 18" fill="none" xmlns="http://www.w3.org/2000/svg">
<path d="M23.2969 15.2344H0.703125C0.315 15.2344 1.62607e-08 15.5494 1.62607e-08 15.9375V17.1094H24V15.9375C24 15.5494 23.685 15.2344 23.2969 15.2344ZM7.77047 1.91016L9.46875 2.73187V1.05469C9.46875 0.989531 9.4725 0.925312 9.47953 0.862031L7.77047 0.0351562C7.67391 -0.0117188 7.56094 -0.0117188 7.46438 0.0351562L0.198281 3.55078C0.138839 3.57956 0.0887097 3.62451 0.05364 3.68047C0.0185703 3.73643 -2.00707e-05 3.80114 1.62607e-08 3.86719V5.52188L7.46391 1.91016C7.56047 1.86328 7.67344 1.86328 7.77 1.91016H7.77047ZM15.7969 7.96875H18.375V14.5312H15.7969V7.96875Z" fill="#022858"/>
<path d="M14.0625 14.5316V7.9691H11.2266C10.2572 7.9691 9.46875 7.18067 9.46875 6.21129V3.51317L7.61719 2.61739L1.17188 5.73598V14.5316H4.92188V9.02379C4.92188 8.44207 5.39484 7.9691 5.97656 7.9691H9.25781C9.83953 7.9691 10.3125 8.44207 10.3125 9.02379V14.5316H14.0625Z" fill="#022858"/>
<path d="M5.97656 8.67188C5.7825 8.67188 5.625 8.82937 5.625 9.02344V14.5312H9.60938V9.02344C9.60938 8.82937 9.45187 8.67188 9.25781 8.67188H5.97656ZM8.90625 11.8359C8.90625 12.03 8.74875 12.1875 8.55469 12.1875C8.36063 12.1875 8.20312 12.03 8.20312 11.8359V10.8984C8.20312 10.7044 8.36063 10.5469 8.55469 10.5469C8.74875 10.5469 8.90625 10.7044 8.90625 10.8984V11.8359ZM21.5391 2.69531H21.1875V4.57031H21.5391C21.862 4.57031 22.125 4.30734 22.125 3.98438V3.28125C22.125 2.95828 21.862 2.69531 21.5391 2.69531ZM15.5625 2.69531C15.3042 2.69531 15.0938 2.90578 15.0938 3.16406V4.10156C15.0938 4.35984 15.3042 4.57031 15.5625 4.57031C15.8208 4.57031 16.0312 4.35984 16.0312 4.10156V3.16406C16.0312 2.90578 15.8208 2.69531 15.5625 2.69531Z" fill="#022858"/>
<path d="M22.9453 0H11.2266C10.6448 0 10.1719 0.472969 10.1719 1.05469V6.21094C10.1719 6.79266 10.6448 7.26562 11.2266 7.26562H22.9453C23.527 7.26562 24 6.79266 24 6.21094V1.05469C24 0.472969 23.527 0 22.9453 0ZM12.3398 3.28125H12.6914C13.2408 3.28125 13.6875 3.72797 13.6875 4.27734C13.6875 4.82672 13.2408 5.27344 12.6914 5.27344H11.6953C11.5013 5.27344 11.3438 5.11594 11.3438 4.92188C11.3438 4.72781 11.5013 4.57031 11.6953 4.57031H12.6914C12.8531 4.57031 12.9844 4.43906 12.9844 4.27734C12.9844 4.11562 12.8531 3.98438 12.6914 3.98438H12.3398C11.7905 3.98438 11.3438 3.53766 11.3438 2.98828C11.3438 2.43891 11.7905 1.99219 12.3398 1.99219H13.3359C13.53 1.99219 13.6875 2.14969 13.6875 2.34375C13.6875 2.53781 13.53 2.69531 13.3359 2.69531H12.3398C12.1781 2.69531 12.0469 2.82656 12.0469 2.98828C12.0469 3.15 12.1781 3.28125 12.3398 3.28125ZM16.7344 4.10156C16.7344 4.74797 16.2089 5.27344 15.5625 5.27344C14.9161 5.27344 14.3906 4.74797 14.3906 4.10156V3.16406C14.3906 2.51766 14.9161 1.99219 15.5625 1.99219C16.2089 1.99219 16.7344 2.51766 16.7344 3.16406V4.10156ZM19.1953 5.27344H18.0234C17.8294 5.27344 17.6719 5.11594 17.6719 4.92188V2.34375C17.6719 2.14969 17.8294 1.99219 18.0234 1.99219C18.2175 1.99219 18.375 2.14969 18.375 2.34375V4.57031H19.1953C19.3894 4.57031 19.5469 4.72781 19.5469 4.92188C19.5469 5.11594 19.3894 5.27344 19.1953 5.27344ZM22.8281 3.98438C22.8281 4.695 22.2497 5.27344 21.5391 5.27344H20.8359C20.6419 5.27344 20.4844 5.11594 20.4844 4.92188V2.34375C20.4844 2.14969 20.6419 1.99219 20.8359 1.99219H21.5391C22.2497 1.99219 22.8281 2.57063 22.8281 3.28125V3.98438Z" fill="#022858"/>
</svg>
