<svg width="23" height="23" viewBox="0 0 23 23" fill="none" xmlns="http://www.w3.org/2000/svg">
<path d="M22.6669 1.7613C22.6669 0.790242 21.8774 0 20.9072 0H10.0174C9.04708 0 8.25684 0.790242 8.25684 1.7613V8.60689C8.25684 9.57795 9.04708 10.3682 10.0174 10.3682H14.9371C15.0754 10.3682 15.2091 10.42 15.3093 10.514L18.9182 13.8949C18.9182 13.8949 18.9931 13.965 19.0565 13.9423C19.1343 13.9142 19.1018 13.8158 19.1018 13.8158V10.9122C19.1018 10.6113 19.3457 10.3682 19.6466 10.3682H20.9072C21.8774 10.3682 22.6669 9.57795 22.6669 8.60689V1.7613ZM18.574 7.23479H12.3497C12.2769 7.23703 12.2043 7.22462 12.1364 7.19829C12.0684 7.17196 12.0064 7.13225 11.9541 7.08151C11.9018 7.03077 11.8602 6.97004 11.8318 6.90293C11.8034 6.83581 11.7887 6.76367 11.7887 6.69079C11.7887 6.6179 11.8034 6.54576 11.8318 6.47865C11.8602 6.41153 11.9018 6.3508 11.9541 6.30006C12.0064 6.24933 12.0684 6.20962 12.1364 6.18329C12.2043 6.15696 12.2769 6.14455 12.3497 6.14679H18.574C18.6469 6.14455 18.7194 6.15696 18.7874 6.18329C18.8554 6.20962 18.9173 6.24933 18.9697 6.30006C19.022 6.3508 19.0636 6.41153 19.092 6.47865C19.1204 6.54576 19.135 6.6179 19.135 6.69079C19.135 6.76367 19.1204 6.83581 19.092 6.90293C19.0636 6.97004 19.022 7.03077 18.9697 7.08151C18.9173 7.13225 18.8554 7.17196 18.7874 7.19829C18.7194 7.22462 18.6469 7.23703 18.574 7.23479ZM18.574 4.12276H12.3497C12.2769 4.125 12.2043 4.11259 12.1364 4.08626C12.0684 4.05993 12.0064 4.02022 11.9541 3.96948C11.9018 3.91874 11.8602 3.85801 11.8318 3.7909C11.8034 3.72378 11.7887 3.65164 11.7887 3.57876C11.7887 3.50587 11.8034 3.43374 11.8318 3.36662C11.8602 3.2995 11.9018 3.23877 11.9541 3.18803C12.0064 3.1373 12.0684 3.09759 12.1364 3.07126C12.2043 3.04493 12.2769 3.03252 12.3497 3.03476H18.574C18.6469 3.03252 18.7194 3.04493 18.7874 3.07126C18.8554 3.09759 18.9173 3.1373 18.9697 3.18803C19.022 3.23877 19.0636 3.2995 19.092 3.36662C19.1204 3.43374 19.135 3.50587 19.135 3.57876C19.135 3.65164 19.1204 3.72378 19.092 3.7909C19.0636 3.85801 19.022 3.91874 18.9697 3.96948C18.9173 4.02022 18.8554 4.05993 18.7874 4.08626C18.7194 4.11259 18.6469 4.125 18.574 4.12276Z" fill="#022858"/>
<path d="M14.4093 11.4563H10.0171C8.44307 11.4563 7.16704 10.1803 7.16704 8.60624V8.55833H1.75821C1.52732 8.55833 1.29869 8.60381 1.08537 8.69217C0.872057 8.78053 0.678233 8.91004 0.514968 9.0733C0.18524 9.40303 0 9.85024 0 10.3165V17.1637C0 17.63 0.18524 18.0772 0.514968 18.4069C0.678233 18.5702 0.872057 18.6997 1.08537 18.7881C1.29869 18.8764 1.52732 18.9219 1.75821 18.9219H3.01879C3.31964 18.9219 3.56356 19.165 3.56356 19.4659V22.376C3.56356 22.376 3.5445 22.4481 3.61817 22.4849C3.69338 22.5225 3.7503 22.4625 3.7503 22.4625L7.36074 19.0692L7.73268 18.9219H12.6503C13.1168 18.9218 13.5642 18.7365 13.894 18.4066C14.2239 18.0768 14.4092 17.6294 14.4093 17.1629V11.4563ZM4.40377 14.2294C4.33353 14.2294 4.26398 14.2156 4.19908 14.1887C4.13418 14.1618 4.07521 14.1225 4.02553 14.0728C3.97586 14.0232 3.93644 13.9642 3.90955 13.8993C3.88266 13.8344 3.8688 13.7649 3.86879 13.6946C3.86877 13.6244 3.88259 13.5549 3.90945 13.49C3.93632 13.4251 3.9757 13.3661 4.02535 13.3164C4.07501 13.2667 4.13396 13.2273 4.19884 13.2004C4.26373 13.1735 4.33328 13.1597 4.40351 13.1597C4.54537 13.1596 4.68142 13.2159 4.78175 13.3162C4.88208 13.4165 4.93847 13.5525 4.9385 13.6944C4.93853 13.8362 4.88222 13.9723 4.78193 14.0726C4.68165 14.173 4.54562 14.2293 4.40377 14.2294ZM7.5158 14.2294C7.44556 14.2294 7.37601 14.2156 7.31111 14.1887C7.24621 14.1618 7.18724 14.1225 7.13756 14.0728C7.08789 14.0232 7.04847 13.9642 7.02158 13.8993C6.99469 13.8344 6.98083 13.7649 6.98082 13.6946C6.9808 13.6244 6.99462 13.5549 7.02148 13.49C7.04834 13.4251 7.08773 13.3661 7.13738 13.3164C7.18704 13.2667 7.24599 13.2273 7.31087 13.2004C7.37576 13.1735 7.44531 13.1597 7.51554 13.1597C7.6574 13.1596 7.79345 13.2159 7.89378 13.3162C7.99411 13.4165 8.0505 13.5525 8.05053 13.6944C8.05056 13.8362 7.99425 13.9723 7.89396 14.0726C7.79368 14.173 7.65765 14.2293 7.5158 14.2294ZM10.6278 14.2294C10.5576 14.2294 10.488 14.2156 10.4231 14.1887C10.3582 14.1618 10.2993 14.1225 10.2496 14.0728C10.1999 14.0232 10.1605 13.9642 10.1336 13.8993C10.1067 13.8344 10.0929 13.7649 10.0928 13.6946C10.0928 13.6244 10.1066 13.5549 10.1335 13.49C10.1604 13.4251 10.1998 13.3661 10.2494 13.3164C10.2991 13.2667 10.358 13.2273 10.4229 13.2004C10.4878 13.1735 10.5573 13.1597 10.6276 13.1597C10.7694 13.1596 10.9055 13.2159 11.0058 13.3162C11.1061 13.4165 11.1625 13.5525 11.1626 13.6944C11.1626 13.8362 11.1063 13.9723 11.006 14.0726C10.9057 14.173 10.7697 14.2293 10.6278 14.2294ZM4.40377 4.90076H2.84776C2.77491 4.903 2.70235 4.89059 2.63439 4.86426C2.56643 4.83793 2.50445 4.79822 2.45213 4.74748C2.39981 4.69674 2.35821 4.63601 2.3298 4.5689C2.3014 4.50178 2.28676 4.42964 2.28676 4.35676C2.28676 4.28388 2.3014 4.21174 2.3298 4.14462C2.35821 4.0775 2.39981 4.01677 2.45213 3.96603C2.50445 3.9153 2.56643 3.87559 2.63439 3.84926C2.70235 3.82293 2.77491 3.81052 2.84776 3.81276H4.40377C4.47662 3.81052 4.54918 3.82293 4.61714 3.84926C4.6851 3.87559 4.74707 3.9153 4.7994 3.96603C4.85172 4.01677 4.89332 4.0775 4.92173 4.14462C4.95013 4.21174 4.96477 4.28388 4.96477 4.35676C4.96477 4.42964 4.95013 4.50178 4.92173 4.5689C4.89332 4.63601 4.85172 4.69674 4.7994 4.74748C4.74707 4.79822 4.6851 4.83793 4.61714 4.86426C4.54918 4.89059 4.47662 4.903 4.40377 4.90076ZM19.9642 18.9051H18.4082C18.3353 18.9074 18.2628 18.895 18.1948 18.8687C18.1268 18.8423 18.0649 18.8026 18.0125 18.7519C17.9602 18.7011 17.9186 18.6404 17.8902 18.5733C17.8618 18.5062 17.8472 18.434 17.8472 18.3611C17.8472 18.2883 17.8618 18.2161 17.8902 18.149C17.9186 18.0819 17.9602 18.0212 18.0125 17.9704C18.0649 17.9197 18.1268 17.88 18.1948 17.8537C18.2628 17.8273 18.3353 17.8149 18.4082 17.8171H19.9642C20.037 17.8149 20.1096 17.8273 20.1775 17.8537C20.2455 17.88 20.3075 17.9197 20.3598 17.9704C20.4121 18.0212 20.4537 18.0819 20.4821 18.149C20.5105 18.2161 20.5252 18.2883 20.5252 18.3611C20.5252 18.434 20.5105 18.5062 20.4821 18.5733C20.4537 18.6404 20.4121 18.7011 20.3598 18.7519C20.3075 18.8026 20.2455 18.8423 20.1775 18.8687C20.1096 18.895 20.037 18.9074 19.9642 18.9051Z" fill="#022858"/>
</svg>
