<svg width="210" height="151" viewBox="0 0 210 151" fill="none" xmlns="http://www.w3.org/2000/svg">
<path d="M124.77 0H203.848C207.246 0 210 2.7542 210 6.15234V85.2305C210 88.629 207.246 91.3828 203.848 91.3828H170.462V144.54C170.462 147.937 167.708 150.692 164.309 150.692H144.538C143.247 150.692 141.989 150.286 140.942 149.531C139.894 148.776 139.111 147.71 138.703 146.485L118.934 87.1758C118.724 86.5495 118.617 85.8925 118.617 85.2309V6.15234C118.617 2.7542 121.371 0 124.77 0ZM6.15234 0H85.2305C88.629 0 91.3828 2.7542 91.3828 6.15234V85.2305C91.3828 88.629 88.629 91.3828 85.2305 91.3828H51.8429V144.54C51.8429 147.937 49.0892 150.692 45.6906 150.692H25.9219C24.6306 150.692 23.3721 150.286 22.3247 149.531C21.2772 148.776 20.4938 147.71 20.0854 146.485L0.315811 87.1758C0.107864 86.5495 0.000411987 85.8925 0.000411987 85.2309V6.15234C0.000411987 2.7542 2.7542 0 6.15234 0Z" fill="#B8AA94" fill-opacity="0.06"/>
</svg>
