<svg width="66" height="66" viewBox="0 0 66 66" fill="none" xmlns="http://www.w3.org/2000/svg">
<path d="M38.0196 38.9891C35.7357 27.2273 24.9608 21.8821 13.9643 23.965C15.2251 17.3658 21.4034 11.97 25.418 6.95411C25.9874 6.24283 26.2808 4.99193 25.418 4.32168C23.3016 2.67753 21.3264 2.16561 19.5069 2.42516C19.3807 2.07978 19.0466 1.82228 18.6126 1.95873C12.154 3.99237 7.97146 10.8915 5.17318 16.6091C1.48068 24.1555 -0.371729 32.8916 0.0622204 41.2772C0.746486 54.4974 12.55 67.1035 26.6056 63.4332C36.8669 60.7539 39.7794 48.0518 38.0196 38.9891ZM11.7207 49.568C11.7218 49.5636 11.7245 49.5608 11.7255 49.5567C11.7898 49.3088 11.8449 49.0585 11.9033 48.8085C12.0997 49.0637 12.2722 49.3364 12.4187 49.6231C12.1776 49.6545 11.943 49.6747 11.7187 49.6795C11.7173 49.6405 11.7221 49.6056 11.7207 49.568ZM8.74771 18.5432C8.9185 18.6162 9.09965 18.662 9.28459 18.679C8.73393 19.7796 8.22955 20.9028 7.77278 22.0456C7.59175 21.9922 7.40409 21.9648 7.21538 21.9642C7.67976 20.8049 8.19954 19.6679 8.74771 18.5432ZM7.3378 52.1013C7.78647 52.5617 8.25674 53.0006 8.74702 53.4165C8.67374 53.5117 8.61027 53.6142 8.55758 53.7222C8.11781 53.2075 7.70267 52.6727 7.3378 52.1013ZM20.015 52.0558C19.4487 51.3165 19.0209 50.5002 18.7521 49.6087C18.7443 49.5395 18.7227 49.4725 18.6885 49.4117C18.6038 49.1007 18.5404 48.7842 18.4987 48.4645C19.4275 49.727 20.174 51.1332 20.8665 52.5544C20.567 52.4165 20.2818 52.2495 20.015 52.0558Z" fill="#C8BFB0"/>
<path d="M40.1613 21.838C41.4044 16.8174 44.7946 13.3516 47.2574 8.82366C47.6578 8.08742 47.5005 6.94253 46.662 6.55304C45.129 5.84073 43.7513 5.05046 42.2186 4.46399C41.7545 3.4747 40.3539 2.82531 39.2815 3.7917C37.3853 5.50048 35.3151 7.69211 33.661 10.1406C31.4676 12.8311 29.8926 16.0968 29.3694 19.2381C29.3075 19.6102 29.3718 19.9873 29.5174 20.3314C29.4384 20.4685 29.3591 20.6039 29.2798 20.7414C28.8793 21.4352 29.1074 22.3677 29.8115 22.7695C38.1602 27.5297 41.6137 35.2806 41.3678 43.4473C40.9451 44.6387 40.8377 45.9255 40.9988 47.2191C40.3231 51.3288 38.7757 55.444 36.4904 59.2446C35.9768 60.0984 36.1683 60.8976 36.6696 61.4393C36.8009 61.8667 37.1459 62.2282 37.7662 62.3684C51.0761 65.3749 64.4663 59.0052 65.9104 44.4834C67.2543 30.9705 53.1778 19.5825 40.1613 21.838ZM45.2248 59.3889C45.2716 59.3448 45.3133 59.2962 45.3595 59.2511C46.5813 59.1563 47.6982 58.813 48.6471 58.2607C48.6581 58.3079 48.6652 58.3514 48.6765 58.3989C48.7073 58.5292 48.7736 58.628 48.8267 58.7395C47.6432 59.042 46.4394 59.2591 45.2248 59.3889ZM54.6653 33.9835C54.5391 34.215 54.4283 34.4475 54.3169 34.6804C54.308 34.6154 54.3066 34.5484 54.2967 34.4834C54.3134 34.0027 54.3982 33.5072 54.5289 33.0021C54.5429 33.0117 54.5586 33.0199 54.5726 33.0294C54.6397 33.3078 54.6944 33.5916 54.7371 33.8806C54.7149 33.9161 54.6862 33.9459 54.6653 33.9835ZM61.0241 48.5559C61.0292 48.2385 61.0241 47.9188 61.0128 47.597C61.223 47.2442 61.4114 46.8789 61.577 46.5031C61.443 47.2215 61.2477 47.8986 61.0241 48.5559Z" fill="#022858"/>
</svg>
