<svg xmlns="http://www.w3.org/2000/svg" width="74" height="62" viewBox="0 0 74 62" fill="none">
  <path d="M13.7722 59.0151C14.4709 60.6425 14.7639 61.1172 16.3418 61.3658V61.6822H8.58788V61.3658C10.7518 61.072 11.428 60.5069 10.7968 59.0151L9.89522 56.7775H4.23759L3.5163 58.6083C2.70484 60.6425 3.08803 61.072 5.70271 61.3432V61.6596H0V61.3432C1.64545 61.1398 2.09625 60.5069 2.90771 58.5631L8.02437 45.8605H8.11453L13.7722 59.0151ZM4.44045 56.1898H9.64727L7.21292 50.3358L6.96497 49.8385L4.44045 56.1898Z" fill="#C8BFB0"/>
  <path d="M20.3541 61.976C17.7394 61.976 15.8911 59.7836 15.8911 56.7097C15.8911 52.8446 18.1451 50.381 21.8643 50.381C22.5631 50.381 23.2618 50.6974 23.9831 51.1042V48.1207C23.9831 47.194 23.7802 46.855 23.0589 46.6063L22.4053 46.4029V46.1091L26.5076 45.0694L26.5978 45.3406V59.6028C26.5978 60.4165 26.8232 60.6877 27.7023 60.8233L28.3559 60.9137V61.0493L26.1244 61.7952C25.1552 62.1117 24.1409 61.5466 24.0958 60.5295L24.0733 59.8966C22.9688 61.3658 21.5487 61.976 20.3541 61.976ZM23.9831 59.5124V53.2515C23.938 51.8275 22.9012 50.72 21.5713 50.72C19.8582 50.72 18.6861 53.3193 18.6861 55.896C18.6861 59.0151 19.8131 60.7329 21.6614 60.7329C22.6532 60.7329 23.4647 60.1452 23.9831 59.5124Z" fill="#C8BFB0"/>
  <path d="M35.1631 61.9761C31.8722 61.9761 29.7534 59.8966 29.7534 56.2802C29.7534 52.8221 31.8948 50.381 35.1631 50.381C38.2061 50.381 39.9642 52.3022 39.9642 55.2405C39.9642 55.5344 39.9417 55.783 39.8966 56.009H32.4583L32.4808 56.2802C32.7964 59.535 34.5771 61.0494 36.6282 61.0494C37.7327 61.0494 38.7019 60.7103 39.8064 59.9418V60.2583C38.5442 61.411 37.079 61.9761 35.1631 61.9761ZM37.3946 55.3761C37.4397 52.2344 36.5831 50.8104 35.1856 50.8104C33.7656 50.8104 32.6611 52.3926 32.5033 55.4213L37.3946 55.3761Z" fill="#C8BFB0"/>
  <path d="M47.1543 61.9761C43.8634 61.9761 41.7446 59.8966 41.7446 56.2802C41.7446 52.8221 43.886 50.381 47.1543 50.381C50.1973 50.381 51.9554 52.3022 51.9554 55.2405C51.9554 55.5344 51.9329 55.783 51.8878 56.009H44.4495L44.472 56.2802C44.7876 59.535 46.5683 61.0494 48.6194 61.0494C49.7239 61.0494 50.6932 60.7103 51.7976 59.9418V60.2583C50.5354 61.411 49.0702 61.9761 47.1543 61.9761ZM49.3858 55.3761C49.4309 52.2344 48.5744 50.8104 47.1769 50.8104C45.7568 50.8104 44.6523 52.3926 44.4946 55.4213L49.3858 55.3761Z" fill="#C8BFB0"/>
  <path d="M74 61.3658V61.6596H68.1621V61.3658L68.9059 61.2076C69.6272 61.072 69.7399 60.6199 69.7399 59.7384V54.359C69.7399 52.8221 68.703 51.7371 67.283 51.7371C66.3814 51.7371 65.5699 52.2118 65.1191 52.9577C65.2543 53.4549 65.322 53.9974 65.322 54.6077V59.7384C65.322 60.5521 65.4347 61.0494 66.2461 61.2076L67.0125 61.3658V61.6596H61.1745V61.3658L61.9184 61.2076C62.6397 61.072 62.7524 60.6199 62.7524 59.7384V54.359C62.7524 52.8221 61.7155 51.7371 60.2955 51.7371C58.9205 51.7371 57.7484 52.8221 57.7484 54.3138V59.7384C57.7484 60.6199 57.8836 61.072 58.5599 61.2076L59.3037 61.3658V61.6596H53.4883V61.3658L54.2321 61.2076C54.9985 61.0494 55.1563 60.5521 55.1563 59.7384V53.794C55.1563 52.7769 54.9309 52.4152 54.2096 52.1666L53.5559 51.9632V51.7371L57.7259 50.268V52.8447C58.6049 51.1043 60.4307 50.3358 61.7381 50.3358C63.2933 50.3358 64.3978 51.1043 64.9388 52.483C65.8855 51.0139 67.5309 50.3358 68.7481 50.3358C70.9796 50.3358 72.3095 51.9406 72.3095 54.6529V59.7836C72.3095 60.5973 72.4222 61.0946 73.2336 61.2528L74 61.3658Z" fill="#C8BFB0"/>
  <path d="M71.1372 6.78076V26.7388C71.1372 27.7333 70.506 28.7956 70.0101 29.6093C69.9651 29.6771 68.6577 31.4627 68.6577 30.8524V8.24993L71.1372 6.78076Z" fill="#C8BFB0"/>
  <path d="M50.4453 16.0026L50.265 16.2738L48.1913 19.5512C48.1913 19.5512 48.1913 19.5512 48.2138 19.5738C49.1154 20.6135 49.8367 21.8114 50.2875 23.1224C50.4904 23.7101 50.6256 24.3203 50.7158 24.9306C45.6442 26.3093 40.4599 26.8518 35.1855 26.6484C32.6159 26.558 30.0463 26.3997 27.4992 26.1285C26.7103 26.0607 25.944 25.9703 25.1776 25.8799C24.7719 25.8347 23.2617 25.8799 22.9686 25.5861C22.6305 25.247 22.5178 24.1395 22.36 23.6648C21.8641 22.0149 21.3683 20.3875 20.1511 19.0991C18.686 17.5396 16.2516 16.6807 14.2455 17.6752C12.1718 18.7149 10.7518 20.9977 9.91776 23.0772C9.80506 23.371 9.69235 23.6648 9.57965 23.9587C8.67804 24.1847 7.75388 24.3881 6.85227 24.5689C6.28876 24.682 5.54493 24.7272 5.0265 25.021C3.71916 25.7895 3.38105 28.3888 3.11057 29.6997C2.27658 33.7682 3.78678 37.9496 4.23759 41.9729C4.26013 42.2441 4.93634 40.5263 4.98142 40.3681C5.2519 39.4866 5.70271 38.3113 5.61255 37.362C5.31952 34.7627 4.66585 32.2086 4.37283 29.6319C4.39537 29.6093 4.44045 29.6093 4.46299 29.6093C5.72525 29.2929 7.03259 29.0668 8.31739 28.7504C8.31739 29.0894 8.40755 29.4285 8.63296 29.7223C11.5632 33.8586 17.9196 32.4798 21.6838 30.3778C29.7533 31.5305 38.1834 32.1634 46.2303 30.4908C47.1319 30.31 48.0335 30.084 48.9351 29.8579C49.5662 29.6997 50.5129 28.4566 50.8511 27.8915C51.3244 27.1004 51.3244 27.0778 51.6174 26.2189C51.8654 25.4957 51.9555 24.7046 52.0682 23.9587C52.4965 21.156 51.9555 18.3533 50.4453 16.0026ZM10.1657 25.2244C10.346 24.9532 10.5489 24.682 10.7518 24.4333C11.473 23.5744 12.3521 22.7155 13.4115 22.3313C14.8766 21.7888 16.5672 22.1731 17.8294 23.032C19.2044 23.9587 19.9482 25.2696 20.4892 26.7162C16.9503 28.0045 12.6451 28.1853 10.1657 25.2244Z" fill="#C8BFB0"/>
  <path d="M64.5106 29.0668C63.7667 30.7394 61.986 30.9428 60.3406 31.0784C57.3202 31.3723 56.103 31.2593 53.0601 31.0332L54.8407 26.2415C57.0722 26.3771 57.4554 26.4901 59.6869 26.3771C60.9717 26.3093 62.5045 26.3319 63.7893 25.9251C63.6991 25.699 63.5864 25.473 63.4737 25.2696C62.3918 23.145 60.8365 21.2916 59.191 19.5738L61.5352 15.8896C63.1356 17.6978 64.6233 19.6868 65.4122 21.947C66.2236 24.2073 65.4573 26.9648 64.5106 29.0668Z" fill="#C8BFB0"/>
  <path d="M72.3095 3.29997L71.8812 4.81434C70.7317 4.92735 68.8608 5.26639 67.4858 5.58282V5.4246C67.7789 5.06296 68.2297 4.58831 68.951 4.24927C67.1252 3.23216 68.0719 0 70.2583 0C71.498 0 71.6783 1.22054 71.6783 1.96642L71.6107 2.05683C71.205 1.74039 70.6189 1.53697 70.0554 1.53697C69.3341 1.53697 68.5452 1.87601 68.2748 2.26025C68.3875 3.07394 70.1231 3.48079 72.2644 3.16435L72.3095 3.29997Z" fill="#C8BFB0"/>
  <path d="M30.0688 36.5935L32.413 33.9716L35.4785 36.7291L33.1118 39.351L30.0688 36.5935Z" fill="#C8BFB0"/>
  <path d="M38.0364 34.2083L35.6738 36.8503L38.728 39.5965L41.0906 36.9546L38.0364 34.2083Z" fill="#C8BFB0"/>
</svg>