<svg width="25" height="25" viewBox="0 0 34 34" fill="none" xmlns="http://www.w3.org/2000/svg">
<path d="M33.5136 28.9542C33.662 28.8062 33.7798 28.6304 33.8602 28.4368C33.9406 28.2432 33.982 28.0357 33.982 27.826C33.982 27.6164 33.9406 27.4089 33.8602 27.2153C33.7798 27.0217 33.662 26.8459 33.5136 26.6979L28.9818 22.1642C28.3501 21.5325 27.3016 21.5172 26.6825 22.1642C26.3933 22.4647 26.2335 22.8667 26.2375 23.2837C26.2414 23.7008 26.4088 24.0996 26.7037 24.3946L28.5452 26.2354H11.1091C10.2163 26.2354 9.36001 25.8807 8.72868 25.2494C8.09735 24.6181 7.74268 23.7618 7.74268 22.869V5.43488L9.5835 7.2757C9.73095 7.42557 9.90661 7.54476 10.1003 7.6264C10.2941 7.70804 10.5021 7.75051 10.7123 7.75137C10.9226 7.75223 11.1309 7.71145 11.3253 7.63139C11.5197 7.55133 11.6963 7.43357 11.845 7.28491C11.9936 7.13625 12.1114 6.95962 12.1914 6.76522C12.2715 6.57082 12.3123 6.3625 12.3114 6.15226C12.3106 5.94202 12.2681 5.73403 12.1865 5.54029C12.1048 5.34655 11.9856 5.17089 11.8358 5.02345L7.27086 0.464519C6.97334 0.167243 6.56996 0.000255051 6.14937 0.000255051C5.72879 0.000255051 5.32541 0.167243 5.02789 0.464519L0.466311 5.02345C0.171446 5.3184 0.00404294 5.71724 7.22733e-05 6.13429C-0.00389839 6.55133 0.15588 6.95329 0.445076 7.2538C1.06421 7.89683 2.1127 7.88223 2.74378 7.2538L4.5574 5.43488V22.8676C4.5574 23.728 4.72687 24.58 5.05612 25.3749C5.38537 26.1698 5.86797 26.892 6.47635 27.5004C7.70504 28.7291 9.37149 29.4193 11.1091 29.4193H28.5452L26.7037 31.2602C26.5512 31.407 26.4295 31.5828 26.3458 31.7772C26.262 31.9716 26.2178 32.1808 26.2159 32.3925C26.2139 32.6042 26.2541 32.8141 26.3342 33.0101C26.4143 33.206 26.5327 33.384 26.6824 33.5337C26.8321 33.6834 27.0102 33.8017 27.2062 33.8817C27.4021 33.9618 27.6121 34.002 27.8238 33.9999C28.0355 33.9979 28.2446 33.9537 28.439 33.8698C28.6334 33.786 28.8092 33.6643 28.956 33.5118L33.5136 28.9542ZM32.3901 19.9743C32.8125 19.9743 33.2176 19.8065 33.5162 19.5079C33.8149 19.2092 33.9827 18.8041 33.9827 18.3817V6.54906C33.9801 4.81249 33.2889 3.14784 32.0607 1.92015C30.8325 0.692454 29.1676 0.00193065 27.431 0L15.5964 0C15.174 0 14.7689 0.167795 14.4702 0.466473C14.1715 0.76515 14.0037 1.17024 14.0037 1.59264C14.0037 2.01503 14.1715 2.42013 14.4702 2.7188C14.7689 3.01748 15.174 3.18528 15.5964 3.18528H27.431C28.3235 3.18633 29.1792 3.54135 29.8103 4.17245C30.4414 4.80355 30.7964 5.6592 30.7974 6.55172V18.3817C30.7974 18.8041 30.9652 19.2092 31.2639 19.5079C31.5626 19.8065 31.9677 19.9743 32.3901 19.9743Z" fill="#022858"/>
<path d="M21.113 19.932C21.3594 19.932 21.5957 19.8342 21.7699 19.6599C21.9441 19.4857 22.042 19.2494 22.042 19.003V15.1621C22.0415 14.5936 21.8751 14.0375 21.5631 13.5622C21.2511 13.087 20.8071 12.7131 20.2857 12.4865C19.7642 12.26 19.188 12.1906 18.6276 12.2869C18.0673 12.3832 17.5473 12.641 17.1314 13.0286C16.7082 12.632 16.1763 12.3707 15.6037 12.2782C15.0312 12.1858 14.444 12.2664 13.9176 12.5097C13.8062 12.3449 13.6449 12.2202 13.4573 12.1539C13.2698 12.0876 13.0659 12.0833 12.8757 12.1415C12.6856 12.1998 12.5191 12.3175 12.4008 12.4775C12.2825 12.6374 12.2187 12.831 12.2188 13.03V19.0023C12.2188 19.2487 12.3166 19.485 12.4909 19.6593C12.6651 19.8335 12.9014 19.9314 13.1478 19.9314C13.3942 19.9314 13.6305 19.8335 13.8047 19.6593C13.9789 19.485 14.0768 19.2487 14.0768 19.0023V15.1621C14.0768 14.8805 14.1887 14.6104 14.3878 14.4113C14.5869 14.2122 14.857 14.1003 15.1386 14.1003C15.4202 14.1003 15.6902 14.2122 15.8894 14.4113C16.0885 14.6104 16.2003 14.8805 16.2003 15.1621V19.003C16.2003 19.2494 16.2982 19.4857 16.4725 19.6599C16.6467 19.8342 16.883 19.932 17.1294 19.932C17.3758 19.932 17.6121 19.8342 17.7863 19.6599C17.9605 19.4857 18.0584 19.2494 18.0584 19.003V15.1621C18.0584 14.8805 18.1703 14.6104 18.3694 14.4113C18.5685 14.2122 18.8386 14.1003 19.1202 14.1003C19.4018 14.1003 19.6718 14.2122 19.871 14.4113C20.0701 14.6104 20.1819 14.8805 20.1819 15.1621V19.003C20.1819 19.1252 20.206 19.2462 20.2529 19.359C20.2997 19.4718 20.3683 19.5744 20.4548 19.6606C20.5412 19.7469 20.6439 19.8153 20.7568 19.8619C20.8698 19.9085 20.9908 19.9323 21.113 19.932ZM26.7755 10.86V10.7704C26.7748 10.2564 26.5807 9.76145 26.2318 9.38398C25.8829 9.00651 25.4047 8.77416 24.8924 8.7331C24.38 8.69205 23.8709 8.84531 23.4664 9.16241C23.0619 9.4795 22.7914 9.93722 22.7089 10.4446C22.6838 10.6013 22.7221 10.7616 22.8151 10.8901C22.9082 11.0187 23.0486 11.105 23.2053 11.1301C23.362 11.1551 23.5223 11.1169 23.6508 11.0239C23.7794 10.9308 23.8657 10.7904 23.8908 10.6337C23.9255 10.4227 24.0382 10.2324 24.2067 10.1007C24.3752 9.96894 24.587 9.90537 24.8002 9.92259C25.0133 9.9398 25.2122 10.0365 25.3574 10.1936C25.5025 10.3507 25.5833 10.5565 25.5836 10.7704V10.8082C25.5712 11.0046 25.4857 11.1892 25.3441 11.3258L22.8728 13.7971C22.7895 13.8805 22.7327 13.9868 22.7097 14.1024C22.6866 14.2181 22.6983 14.338 22.7433 14.447C22.7883 14.556 22.8646 14.6493 22.9625 14.715C23.0604 14.7807 23.1756 14.816 23.2936 14.8164H26.1796C26.3379 14.8164 26.4899 14.7534 26.6019 14.6414C26.7139 14.5294 26.7768 14.3775 26.7768 14.2191C26.7768 14.0607 26.7139 13.9088 26.6019 13.7968C26.4899 13.6848 26.3379 13.6219 26.1796 13.6219H24.7356L26.1875 12.1706C26.5407 11.8228 26.7505 11.3551 26.7755 10.86Z" fill="#022858"/>
</svg>
