<svg width="25" height="20" viewBox="0 0 25 20" fill="none" xmlns="http://www.w3.org/2000/svg">
<path d="M5.25617 4.05542C5.19633 4.03564 5.13674 4.03564 5.07716 4.03564C4.79876 4.03564 4.56041 4.2146 4.48079 4.49281C4.44104 4.65184 4.46101 4.81097 4.54043 4.95002C4.61995 5.08917 4.7592 5.18856 4.91813 5.2482C5.25617 5.3476 5.59396 5.14881 5.69335 4.83075C5.73311 4.67182 5.71333 4.51279 5.63371 4.37363C5.55435 4.2146 5.41515 4.11521 5.25617 4.05542ZM8.61553 6.95788C9.17214 6.95788 9.70887 6.81868 10.1861 6.54027C10.3848 6.4211 10.6234 6.48069 10.7427 6.67947C10.8618 6.87826 10.8022 7.11681 10.6034 7.23608C10.0071 7.594 9.31129 7.77281 8.61553 7.77281C8.49636 7.77281 8.37699 7.77281 8.25777 7.75303" fill="#B8AA94"/>
<path d="M6.72716 6.32163C7.24416 6.7192 7.88013 6.93777 8.53628 6.95775C8.99344 4.96987 7.78073 2.94223 5.77302 2.38562C5.57424 2.32604 5.37545 2.30606 5.19649 2.26625L5.85264 2.54465C5.73322 2.7832 5.65385 3.04162 5.59402 3.31998C5.932 3.4392 6.21041 3.65777 6.38917 3.97598C6.56818 4.31392 6.62776 4.69151 6.52837 5.04928C6.34961 5.68545 5.77302 6.08303 5.13685 6.08303C5.01768 6.08303 4.87848 6.06325 4.73928 6.02339C4.36173 5.924 4.06355 5.68545 3.86476 5.34751C3.68575 5.00967 3.62616 4.63188 3.72556 4.27416C3.86471 3.75716 4.28216 3.39939 4.75926 3.28022C4.81889 2.9224 4.91829 2.58446 5.07732 2.24647C4.28216 2.16686 3.50674 2.32604 2.79125 2.72361C1.87683 3.24041 1.22073 4.05534 0.922548 5.06931C0.465335 6.59998 0.962305 8.19028 2.15503 9.14447C2.21467 9.20405 2.23465 9.28362 2.21467 9.34325L1.41952 12.3847C1.41952 12.4442 1.41952 12.4841 1.4395 12.5238L1.89671 13.5576C1.93647 13.657 1.89671 13.7563 1.81709 13.816L1.0617 14.313C0.982333 14.3725 0.942526 14.4719 0.982333 14.5713L1.35988 15.3665C1.39969 15.4659 1.37991 15.5653 1.28052 15.6249L0.54495 16.102C0.465335 16.1616 0.425528 16.261 0.465335 16.3604L0.843132 17.1556C0.882889 17.255 0.843132 17.3741 0.763517 17.4139L0.107566 17.7718C0.00817236 17.8315 -0.0315852 17.9507 0.0279518 18.0501L0.763517 19.382C0.783545 19.4218 0.843132 19.4614 0.882939 19.4814H0.942526C0.982283 19.4814 1.02189 19.4814 1.04192 19.4614L2.57259 18.5669C2.6122 18.5471 2.652 18.5073 2.67198 18.4477L5.03746 10.3172C5.05749 10.2378 5.11707 10.1782 5.19649 10.1782C6.46878 9.9992 7.64173 9.04507 8.21807 7.77273C7.48255 7.71309 6.76696 7.43479 6.1706 6.97758C5.99159 6.83843 5.95203 6.58 6.09099 6.40119C6.28977 6.22223 6.5484 6.18243 6.72716 6.32163Z" fill="#B8AA94"/>
<path d="M5.05664 2.22653C5.69256 0.914326 7.0643 0 8.6148 0C10.4437 0 12.0538 1.29212 12.4514 3.04141C12.4912 3.25997 12.352 3.47874 12.1334 3.51855C11.9148 3.55816 11.6961 3.41915 11.6364 3.20039C11.3185 1.80887 10.0461 0.795152 8.59497 0.795152C7.38231 0.795152 6.30891 1.49091 5.79201 2.52461" fill="#B8AA94"/>
<path d="M24.5584 10.6153L17.581 3.71752C17.4218 3.55834 16.9846 3.20057 16.4676 3.18079L11.9551 2.76318H11.8161C11.3389 2.76318 10.9414 2.94219 10.5836 3.29996C10.2058 3.67776 10.0469 4.07533 10.0469 4.63184V4.6717L10.4445 9.14443C10.4445 9.66118 10.8221 10.0787 10.9812 10.2378L17.9585 17.1357C18.0382 17.2151 18.1375 17.2549 18.2567 17.2549C18.3761 17.2549 18.4755 17.2151 18.5549 17.1357L24.5782 11.1919C24.7173 11.0329 24.7173 10.7744 24.5584 10.6153ZM15.1557 10.1383C15.0563 10.1383 14.9369 10.0985 14.8575 10.0189C14.6986 9.85992 14.6986 9.60154 14.8575 9.44256L16.8454 7.47446C17.0044 7.31543 17.2628 7.31543 17.4218 7.47446C17.581 7.63349 17.581 7.89201 17.4218 8.05104L15.4339 10.0189C15.3545 10.0985 15.2551 10.1383 15.1557 10.1383H15.1557ZM19.7477 10.3371L17.7598 12.305C17.6804 12.3846 17.581 12.4244 17.4616 12.4244C17.3423 12.4244 17.243 12.3846 17.1634 12.305C17.0044 12.146 17.0044 11.8876 17.1634 11.7286L19.1513 9.76052C19.3102 9.60149 19.5689 9.60149 19.7278 9.76052C19.9066 9.91955 19.9066 10.1781 19.7477 10.3371Z" fill="#B8AA94"/>
</svg>