<svg width="47" height="40" viewBox="0 0 47 40" fill="none" xmlns="http://www.w3.org/2000/svg">
    <rect x="19" width="28" height="28" fill="#C8BFB0"/>
    <path d="M40.7007 20.3043C40.6087 20.1997 38.4053 17.7127 34.8371 15.204C25.3357 8.52338 16.0454 8.25536 6.16275 15.204C2.59462 17.7127 0.391275 20.1997 0.299266 20.3043C0.106389 20.5236 0 20.8056 0 21.0976C0 21.3897 0.106389 21.6717 0.299266 21.891C0.391275 21.9956 2.59462 24.4826 6.16283 26.9913C15.6643 33.6719 24.9545 33.9399 34.8372 26.9913C38.4054 24.4826 40.6087 21.9956 40.7008 21.891C40.8936 21.6717 41 21.3897 41 21.0976C41 20.8056 40.8936 20.5236 40.7007 20.3043ZM29.2242 21.0976C29.2242 25.8825 25.2784 29.7187 20.5 29.7187C15.7137 29.7187 11.7758 25.8745 11.7758 21.0976C11.7758 16.3128 15.7216 12.4766 20.5 12.4766C25.2863 12.4766 29.2242 16.3208 29.2242 21.0976ZM2.86241 21.0976C5.23368 18.728 8.20074 16.4735 11.3046 14.898C8.75351 18.6002 8.70411 23.5234 11.3046 27.2973C8.1852 25.714 5.21951 23.4529 2.86241 21.0976ZM29.6952 27.2973C32.2464 23.5951 32.2958 18.6719 29.6952 14.898C32.8147 16.4813 35.7804 18.7424 38.1375 21.0976C35.7712 23.462 32.8054 25.7187 29.6952 27.2973Z" fill="#022858"/>
    <path d="M21.7011 19.8965H22.4048L20.5 21.8013L18.9449 20.2463C18.4763 19.7775 17.7152 19.7772 17.2462 20.2463L14.8645 22.6281C14.3954 23.0972 14.3954 23.8577 14.8645 24.3268C15.3335 24.796 16.0941 24.7958 16.5632 24.3268L18.0956 22.7943L19.6507 24.3493C20.1198 24.8184 20.8803 24.8184 21.3494 24.3493L24.1035 21.5952V21.8984C24.1035 22.5618 24.6413 23.0996 25.3047 23.0996C25.968 23.0996 26.5058 22.5618 26.5058 21.8984V18.6953C26.5058 18.0319 25.968 17.4941 25.3047 17.4941H21.7011C21.0378 17.4941 20.5 18.0319 20.5 18.6953C20.5 19.3587 21.0378 19.8965 21.7011 19.8965ZM20.5 7.80469C21.1633 7.80469 21.7011 7.26688 21.7011 6.60352V4.20117C21.7011 3.5378 21.1633 3 20.5 3C19.8366 3 19.2988 3.5378 19.2988 4.20117V6.60352C19.2988 7.26688 19.8366 7.80469 20.5 7.80469ZM28.3476 9.90746C28.9196 10.2378 29.6553 10.045 29.9884 9.46783L31.1896 7.3874C31.5214 6.81292 31.3245 6.0782 30.75 5.7466C30.1755 5.41476 29.4408 5.61159 29.1092 6.18623L27.908 8.26666C27.5762 8.84114 27.7731 9.57578 28.3476 9.90746ZM20.5 34.3105C19.8366 34.3105 19.2988 34.8484 19.2988 35.5117V37.9941C19.2988 38.6575 19.8366 39.1953 20.5 39.1953C21.1633 39.1953 21.7011 38.6575 21.7011 37.9941V35.5117C21.7011 34.8484 21.1633 34.3105 20.5 34.3105ZM29.9484 32.6581C29.6166 32.0836 28.8821 31.8867 28.3076 32.2185C27.733 32.5502 27.5362 33.2847 27.868 33.8593L29.1092 36.0092C29.4419 36.5855 30.1772 36.7796 30.75 36.4488C31.3245 36.1171 31.5214 35.3826 31.1896 34.808L29.9484 32.6581ZM11.0115 9.46783C11.3442 10.0442 12.0795 10.2383 12.6523 9.90746C13.2269 9.57578 13.4237 8.84114 13.0919 8.26666L11.8908 6.18623C11.559 5.61159 10.8245 5.41484 10.25 5.7466C9.67541 6.07828 9.47858 6.81292 9.81035 7.3874L11.0115 9.46783ZM12.6924 32.2185C12.1179 31.8866 11.3832 32.0837 11.0516 32.6581L9.81035 34.808C9.47858 35.3826 9.67541 36.1172 10.25 36.4488C10.8222 36.7793 11.5577 36.586 11.8908 36.0092L13.132 33.8593C13.4638 33.2848 13.2669 32.5502 12.6924 32.2185Z" fill="#022858"/>
    </svg>