<svg width="37" height="24" viewBox="0 0 47 34" fill="none" xmlns="http://www.w3.org/2000/svg">
<path d="M45.2507 11.7422C44.6957 11.1861 44.0102 11.0336 43.6 10.9426C43.0355 10.8171 42.4503 10.8171 41.8858 10.9426C41.1685 11.1039 40.7155 11.423 40.0871 11.8661C39.341 12.3892 38.6922 13.0388 38.17 13.7855C37.769 14.3895 37.4451 15.0412 37.2059 15.7256C36.3055 18.2066 36.1739 21.3697 36.1727 23.0323C36.1727 23.6381 35.6817 24.1291 35.0759 24.1291H10.9907C10.385 24.1291 9.89391 23.6381 9.89391 23.0323C9.89391 21.3686 9.75571 18.2066 8.86403 15.7256C8.62405 15.0407 8.29983 14.3882 7.89883 13.7832C7.37546 13.0367 6.72594 12.3872 5.97944 11.8638C5.35099 11.4251 4.89692 11.0961 4.1785 10.9392C3.61483 10.8126 3.03007 10.8126 2.4664 10.9392C2.05511 11.0302 1.36959 11.1839 0.813522 11.7399C0.804782 11.7498 -0.173577 12.7643 0.0271331 14.0881C0.246454 15.5041 1.59878 16.2905 2.45756 16.4724C2.76973 16.5382 3.0929 16.531 3.40188 16.4516C3.77482 16.3803 4.28698 16.2816 4.86824 16.5448C6.69879 17.3718 6.89837 20.5086 5.5482 27.3491C6.23804 29.376 7.10669 29.5328 7.76475 29.6096H9.89247V32.8999C9.89247 33.5057 10.3835 33.9967 10.9893 33.9967H12.0861C12.6918 33.9967 13.1829 33.5057 13.1829 32.8999V29.6129H32.8876V32.9032C32.8876 33.5089 33.3786 34 33.9844 34H35.0812C35.6869 34 36.178 33.5089 36.178 32.9032V29.6129H38.3057C38.9638 29.5372 39.8324 29.3793 40.5222 27.3524C39.1721 20.513 39.3718 17.3717 41.2022 16.5481C41.7835 16.2849 42.299 16.3825 42.6697 16.4549C42.9793 16.5325 43.3025 16.5393 43.6152 16.4746C44.4739 16.2925 45.8284 15.5061 46.0456 14.0913C46.2421 12.7676 45.2605 11.7532 45.2507 11.7422Z" fill="#022858"/>
<path fill-rule="evenodd" clip-rule="evenodd" d="M10.926 14.9843C10.6244 14.1188 10.2123 13.296 9.69981 12.5363C9.02829 11.5781 8.1955 10.7439 7.23854 10.0707C7.03586 9.92645 6.82999 9.78675 6.62109 9.65167C9.2402 3.8903 15.7046 0 23.0333 0C30.7677 0 37.3857 3.77185 39.9049 9.37528C39.5327 9.58658 39.1728 9.81875 38.8268 10.0707C37.8685 10.743 37.0355 11.5783 36.3657 12.5384C35.8537 13.297 35.4423 14.1188 35.1417 14.9831C34.3136 17.2864 34.0647 20.0305 34.0011 21.9356H12.0656C12.003 20.0295 11.754 17.2875 10.926 14.9843ZM23 4C24.5667 4 25.9556 4.71111 26.8667 5.83333C27.5778 6.68889 28 7.8 28 9C28 9.93333 27.7333 10.8222 27.2778 11.5778C27.0111 12.0222 26.6778 12.4222 26.2889 12.7556C25.4111 13.5333 24.2667 14 23 14C21.8111 14 20.7111 13.5778 19.8556 12.8667H19.8444C19.4 12.5111 19.0222 12.0778 18.7222 11.5778C18.2667 10.8222 18 9.93333 18 9C18 7.42222 18.7222 6.01111 19.8778 5.1C20.7333 4.41111 21.8222 4 23 4ZM22.8444 10.8444L25.5111 8.37778C25.8556 8.06667 25.8778 7.54444 25.5556 7.2C25.2444 6.86667 24.7111 6.84444 24.3778 7.15556L22.3 9.07778L21.6333 8.41111C21.3111 8.08889 20.7778 8.08889 20.4556 8.41111C20.1333 8.73333 20.1333 9.26667 20.4556 9.58889L21.6889 10.8222C21.8556 10.9889 22.0667 11.0667 22.2778 11.0667C22.4778 11.0667 22.6889 10.9889 22.8444 10.8444Z" fill="#022858"/>
</svg>
