<svg width="40" height="40" viewBox="0 0 40 40" fill="none" xmlns="http://www.w3.org/2000/svg">
<path d="M31.224 27.8106C31.4255 27.1004 31.2861 26.3552 30.8415 25.766C30.3969 25.1768 29.7184 24.8384 28.9803 24.8374L22.4176 24.8335L23.0368 19.8877C23.1523 18.9651 22.5982 18.0755 21.7194 17.772C21.7062 17.7675 21.6928 17.7634 21.6793 17.7599C20.6753 17.492 19.6352 17.9436 19.1456 18.8588L17.4855 21.7484C17.1825 22.2755 16.962 22.8458 16.8315 23.4396L16.3009 25.8526C16.2076 26.2769 15.8245 26.5849 15.3902 26.5849H9.78102C8.76992 26.5849 7.94727 27.4074 7.94727 28.4186V36.6849C7.94727 37.696 8.76985 38.5188 9.78102 38.5188H14.0986L16.6108 39.4201C17.6795 39.8041 18.8067 40.0001 19.9423 39.9995H19.9452L22.1603 39.9977C22.3157 39.9977 22.4647 39.9359 22.5746 39.826C22.6844 39.716 22.7461 39.567 22.746 39.4116C22.746 39.2562 22.6842 39.1072 22.5742 38.9973C22.4643 38.8875 22.3152 38.8258 22.1598 38.8259H22.1594L19.9445 38.8277H19.942C18.9414 38.8281 17.9483 38.6554 17.0066 38.317L14.3985 37.3813C14.335 37.3585 14.2681 37.3469 14.2006 37.3469H9.78102C9.4161 37.3469 9.11914 37.0499 9.11914 36.6849V28.4187C9.11914 28.0538 9.41602 27.7568 9.78102 27.7568H15.3902C16.3705 27.7568 17.2349 27.0618 17.4455 26.1043L17.9761 23.6913C18.0809 23.2141 18.2581 22.7558 18.5016 22.3323L20.1665 19.4344C20.1699 19.4285 20.1732 19.4225 20.1764 19.4164C20.4036 18.9869 20.8862 18.7712 21.3563 18.8868C21.7033 19.0166 21.9202 19.373 21.8741 19.7422L21.1724 25.3467C21.1621 25.4291 21.1695 25.5128 21.194 25.5922C21.2185 25.6716 21.2596 25.7448 21.3146 25.8071C21.3696 25.8694 21.4371 25.9193 21.5129 25.9535C21.5886 25.9877 21.6707 26.0054 21.7538 26.0054H23.9009C23.8052 26.1708 23.7305 26.3475 23.6783 26.5313C23.4702 27.3526 23.6562 28.2746 24.3789 28.9195C24.0438 29.2145 23.8006 29.5997 23.6783 30.0291C23.4701 30.8504 23.6562 31.7725 24.3789 32.4173C24.0438 32.7123 23.8006 33.0975 23.6783 33.5269C23.4701 34.3481 23.6562 35.2703 24.3789 35.9151C24.0438 36.2102 23.8006 36.5954 23.6783 37.0248C23.4767 37.7349 23.6162 38.4801 24.0608 39.0692C24.5055 39.6585 25.1838 39.997 25.922 39.9979L27.768 40H27.7709C28.8102 40 29.7338 39.3021 30.0176 38.3022C30.2054 37.6406 30.0969 36.9488 29.7216 36.3808C30.4355 36.1387 31.0106 35.5578 31.224 34.806C31.4322 33.9847 31.2462 33.0627 30.5234 32.4179C30.8585 32.1229 31.1017 31.7377 31.224 31.3083C31.4322 30.487 31.2462 29.565 30.5234 28.9202C30.8509 28.631 31.0993 28.25 31.224 27.8106ZM28.8902 37.9822C28.7488 38.4806 28.2887 38.8281 27.7709 38.8281H27.7694L25.9234 38.8259C25.5556 38.8254 25.2177 38.6568 24.9961 38.3632C24.7745 38.0696 24.7051 37.6983 24.8055 37.3445C24.9452 36.8523 25.3963 36.5076 25.9066 36.4995C25.9117 36.4995 25.9167 36.4999 25.9219 36.4999L27.7957 36.5024C28.1543 36.5099 28.4828 36.6763 28.6996 36.9636C28.9212 37.2572 28.9906 37.6285 28.8902 37.9822ZM29.9061 33.4675C30.1276 33.761 30.1971 34.1323 30.0966 34.486C29.9552 34.9843 29.4951 35.332 28.9773 35.332H28.9758L25.9277 35.3268H25.9248C25.9204 35.3268 25.9161 35.3274 25.9117 35.3274C25.5485 35.3234 25.2152 35.1559 24.996 34.8655C24.7745 34.5719 24.705 34.2006 24.8054 33.8468C24.9452 33.3545 25.3962 33.0099 25.9065 33.0017C25.9116 33.0017 25.9166 33.0022 25.9218 33.0022L28.9742 33.0061H28.9774C28.9818 33.0061 28.986 33.0056 28.9904 33.0056C29.3537 33.0095 29.687 33.177 29.9061 33.4675ZM29.9061 29.9697C30.1276 30.2632 30.1971 30.6345 30.0966 30.9882C29.9569 31.4806 29.5059 31.8252 28.9956 31.8333C28.9905 31.8333 28.9855 31.8328 28.9803 31.8328L25.9278 31.8289H25.9248C25.9205 31.8289 25.9162 31.8295 25.9118 31.8295C25.5486 31.8255 25.2153 31.658 24.9961 31.3676C24.7746 31.074 24.7051 30.7027 24.8055 30.3489C24.9451 29.8569 25.3957 29.5124 25.9055 29.5038C25.911 29.5038 25.9164 29.5043 25.9219 29.5043L28.9744 29.5082H28.9773C28.982 29.5082 28.9865 29.5077 28.9912 29.5077C29.3541 29.5119 29.6871 29.6795 29.9061 29.9697ZM28.9803 28.3351L25.9278 28.3312H25.9248C25.9202 28.3312 25.9157 28.3317 25.911 28.3317C25.548 28.3275 25.2151 28.16 24.9961 27.8698C24.7745 27.5762 24.7051 27.2049 24.8055 26.8511C24.9469 26.3528 25.407 26.0052 25.9248 26.0052H25.9263L28.9788 26.0092C29.3466 26.0096 29.6845 26.1783 29.9061 26.4719C30.1276 26.7654 30.1971 27.1367 30.0966 27.4905C29.957 27.9825 29.5064 28.327 28.9966 28.3356C28.9912 28.3356 28.9858 28.3351 28.9803 28.3351ZM10.5755 5.20697C10.4475 4.81314 10.1135 4.5315 9.70367 4.47197L8.68633 4.32408L8.23133 3.40212C8.04805 3.0308 7.67695 2.80017 7.26289 2.80017C6.84883 2.80017 6.47774 3.0308 6.29445 3.40212L5.83945 4.32408L4.82203 4.47197C4.41227 4.53158 4.0782 4.81314 3.95031 5.20697C3.82242 5.6008 3.92711 6.02494 4.22359 6.314L4.95977 7.03158L4.78594 8.04486C4.71594 8.45298 4.88047 8.85767 5.21555 9.10111C5.55047 9.34462 5.98633 9.37603 6.35297 9.18345L7.26289 8.70501L8.17289 9.18345C8.32808 9.26544 8.50089 9.30843 8.67641 9.30869C8.89938 9.30869 9.12094 9.23877 9.31024 9.10126C9.64524 8.85783 9.80984 8.45306 9.73985 8.04501L9.5661 7.03166L10.3023 6.31408C10.5987 6.02494 10.7034 5.60072 10.5755 5.20697ZM8.52742 6.40744C8.4594 6.47376 8.40852 6.55562 8.37916 6.64598C8.34981 6.73633 8.34285 6.83247 8.35891 6.92611L8.55328 8.05947L7.53555 7.52431C7.45145 7.48013 7.35788 7.45705 7.26289 7.45705C7.1679 7.45705 7.07433 7.48013 6.99024 7.52431L5.9725 8.05947L6.16688 6.92611C6.18293 6.83247 6.17598 6.73633 6.14662 6.64598C6.11726 6.55562 6.06638 6.47376 5.99836 6.40744L5.17492 5.60486L6.31274 5.43955C6.40676 5.42591 6.49605 5.3896 6.57291 5.33376C6.64977 5.27791 6.71189 5.20421 6.75391 5.119L7.26281 4.08791L7.77164 5.119C7.81367 5.2042 7.87579 5.2779 7.95265 5.33374C8.02951 5.38958 8.1188 5.4259 8.21281 5.43955L9.35063 5.60486L8.52742 6.40744ZM19.0547 5.20697C18.9267 4.81314 18.5927 4.5315 18.1829 4.47197L17.1655 4.32408L16.7105 3.40212C16.5273 3.0308 16.1562 2.80017 15.7421 2.80017C15.328 2.80017 14.957 3.0308 14.7737 3.40212L14.3187 4.32408L13.3013 4.47197C12.8915 4.53158 12.5575 4.81314 12.4295 5.20697C12.3016 5.60072 12.4063 6.02494 12.7028 6.314L13.439 7.03158L13.2652 8.04494C13.1952 8.45306 13.3598 8.85775 13.6948 9.10119C14.0299 9.34455 14.4656 9.37611 14.8322 9.18345L15.7421 8.70501L16.6521 9.18345C16.8073 9.26544 16.9801 9.30843 17.1556 9.30869C17.3786 9.30869 17.6002 9.23877 17.7895 9.10126C18.1245 8.85791 18.2891 8.45314 18.2191 8.04501L18.0452 7.03166L18.7814 6.31408C19.078 6.02494 19.1827 5.60072 19.0547 5.20697ZM17.0066 6.40744C16.9386 6.47376 16.8877 6.55562 16.8584 6.64598C16.829 6.73633 16.8221 6.83247 16.8381 6.92611L17.0325 8.05947L16.0148 7.52431C15.9307 7.48011 15.8371 7.45701 15.7421 7.45701C15.6471 7.45701 15.5535 7.48011 15.4695 7.52431L14.4517 8.05947L14.6461 6.92611C14.6621 6.83247 14.6552 6.73633 14.6258 6.64598C14.5965 6.55562 14.5456 6.47376 14.4776 6.40744L13.6542 5.60494L14.792 5.43962C14.8861 5.42599 14.9753 5.38968 15.0522 5.33384C15.1291 5.27799 15.1912 5.20429 15.2332 5.11908L15.7421 4.08798L16.251 5.11908C16.293 5.20428 16.3552 5.27798 16.432 5.33382C16.5089 5.38966 16.5982 5.42597 16.6922 5.43962L17.83 5.60494L17.0066 6.40744ZM27.534 5.20697C27.406 4.81314 27.072 4.5315 26.6622 4.47197L25.6448 4.32408L25.1898 3.40212C25.0066 3.0308 24.6355 2.80017 24.2214 2.80017C23.8073 2.80017 23.4363 3.0308 23.253 3.40212L22.798 4.32408L21.7806 4.47197C21.3708 4.53158 21.0368 4.81314 20.9088 5.20697C20.7809 5.60072 20.8856 6.02494 21.1821 6.314L21.9183 7.03158L21.7445 8.04494C21.6745 8.45306 21.8391 8.85775 22.1741 9.10119C22.5091 9.34462 22.9448 9.37603 23.3114 9.18345L24.2213 8.70501L25.1313 9.18345C25.2865 9.26544 25.4593 9.30843 25.6348 9.30869C25.8578 9.30869 26.0793 9.23877 26.2686 9.10126C26.6036 8.85791 26.7683 8.45314 26.6983 8.04501L26.5245 7.03166L27.2606 6.31408C27.5573 6.02494 27.662 5.60072 27.534 5.20697ZM25.486 6.40744C25.418 6.47376 25.3671 6.55562 25.3378 6.64598C25.3084 6.73633 25.3014 6.83247 25.3175 6.92611L25.5119 8.05947L24.4941 7.52431C24.41 7.48013 24.3165 7.45705 24.2215 7.45705C24.1265 7.45705 24.0329 7.48013 23.9488 7.52431L22.9311 8.05947L23.1255 6.92611C23.1415 6.83247 23.1346 6.73633 23.1052 6.64598C23.0759 6.55562 23.025 6.47376 22.957 6.40744L22.1336 5.60494L23.2714 5.43962C23.3654 5.42599 23.4547 5.38968 23.5316 5.33384C23.6084 5.27799 23.6706 5.20429 23.7126 5.11908L24.2215 4.08798L24.7304 5.11908C24.7724 5.20426 24.8346 5.27795 24.9114 5.33379C24.9883 5.38963 25.0776 5.42595 25.1716 5.43962L26.3094 5.60494L25.486 6.40744ZM30.6534 9.10111C30.9884 9.34447 31.4242 9.37603 31.7908 9.18337L32.7007 8.70494L33.6107 9.18337C33.7659 9.26536 33.9387 9.30834 34.1142 9.30861C34.3373 9.30861 34.5588 9.23869 34.748 9.10111C34.9117 8.98321 35.0387 8.8216 35.1147 8.63479C35.1907 8.44799 35.2125 8.24356 35.1777 8.04494L35.0038 7.03158L35.74 6.314C36.0365 6.02494 36.1413 5.6008 36.0133 5.20697C35.8853 4.81314 35.5513 4.5315 35.1415 4.47197L34.1241 4.32408L33.6691 3.40212C33.4859 3.0308 33.1148 2.80017 32.7007 2.80017C32.2866 2.80017 31.9155 3.0308 31.7323 3.40212L31.2773 4.32408L30.2598 4.47197C29.85 4.53158 29.516 4.81314 29.388 5.20697C29.2601 5.60072 29.3648 6.02494 29.6613 6.314L30.3975 7.03158L30.2237 8.04486C30.1889 8.2435 30.2108 8.44794 30.2868 8.63475C30.3628 8.82155 30.4898 8.98318 30.6534 9.10111ZM31.7507 5.43955C31.8447 5.42591 31.934 5.3896 32.0109 5.33376C32.0877 5.27791 32.1499 5.20421 32.1919 5.119L32.7007 4.08791L33.2096 5.119C33.2516 5.2042 33.3138 5.2779 33.3906 5.33374C33.4675 5.38958 33.5568 5.4259 33.6508 5.43955L34.7886 5.60486L33.9652 6.40736C33.8972 6.47367 33.8463 6.55553 33.8169 6.64589C33.7876 6.73625 33.7806 6.83239 33.7967 6.92603L33.9911 8.05939L32.9734 7.52423C32.8893 7.48003 32.7957 7.45693 32.7007 7.45693C32.6057 7.45693 32.5121 7.48003 32.428 7.52423L31.4103 8.05939L31.6047 6.92603C31.6207 6.83239 31.6138 6.73626 31.5844 6.64591C31.5551 6.55555 31.5042 6.47369 31.4362 6.40736L30.6128 5.60486L31.7507 5.43955Z" fill="#022858"/>
<path d="M37.9182 0H2.04539C0.917578 0 0 0.9175 0 2.04539V10.223C0 11.3509 0.917578 12.2684 2.04539 12.2684H17.4695L18.8737 15.7156C19.058 16.1684 19.493 16.4608 19.9819 16.4608C20.4707 16.4608 20.9057 16.1684 21.0901 15.7156L22.4942 12.2684H31.3303C31.6539 12.2684 31.9162 12.0061 31.9162 11.6824C31.9162 11.3588 31.6539 11.0965 31.3303 11.0965H22.1001C21.9836 11.0965 21.8698 11.1312 21.7731 11.1962C21.6764 11.2612 21.6014 11.3535 21.5574 11.4614L20.0047 15.2736C20 15.2851 19.9984 15.2889 19.9818 15.2889C19.9652 15.2889 19.9636 15.2851 19.9589 15.2736L18.4062 11.4614C18.3622 11.3535 18.2871 11.2612 18.1905 11.1962C18.0938 11.1312 17.98 11.0965 17.8635 11.0965H2.04539C1.56375 11.0965 1.17188 10.7046 1.17188 10.223V2.04539C1.17188 1.56375 1.56375 1.17188 2.04539 1.17188H37.9182C38.3998 1.17188 38.7917 1.56375 38.7917 2.04539V10.223C38.7917 10.7046 38.3998 11.0965 37.9182 11.0965H34.0794C33.7558 11.0965 33.4934 11.3588 33.4934 11.6824C33.4934 12.0061 33.7558 12.2684 34.0794 12.2684H37.9182C39.046 12.2684 39.9636 11.3509 39.9636 10.223V2.04539C39.9636 0.9175 39.046 0 37.9182 0Z" fill="#022858"/>
</svg>
