<svg width="18" height="18" viewBox="0 0 18 18" fill="none" xmlns="http://www.w3.org/2000/svg">
<path d="M9 0C4.02949 0 0 4.02949 0 9C0 13.9705 4.02949 18 9 18C13.9705 18 18 13.9705 18 9C17.9945 4.03185 13.9682 0.00555 9 0ZM16.7837 12.1529L14.2242 12.5946C14.5172 11.5201 14.6754 10.4135 14.6951 9.3H17.3925C17.3587 10.2793 17.1526 11.2451 16.7837 12.1529H16.7837ZM0.6075 9.3H3.30488C3.32467 10.4135 3.48287 11.5201 3.77584 12.5946L1.21631 12.1529C0.847417 11.2451 0.641318 10.2793 0.607463 9.3H0.6075ZM1.21631 5.84707L3.77584 5.40544C3.48284 6.47985 3.32462 7.58653 3.3048 8.7H0.6075C0.641344 7.72065 0.84743 6.75492 1.21631 5.84707ZM9.3 4.81684C10.3781 4.83058 11.4534 4.92878 12.5161 5.11054L13.575 5.2932C13.9003 6.40035 14.0754 7.54621 14.0955 8.7H9.3V4.81684ZM12.6183 4.5192C11.5218 4.33178 10.4123 4.23068 9.3 4.21684V0.616838C11.0199 0.782063 12.5139 2.3568 13.3605 4.64854L12.6183 4.5192ZM8.7 4.21684C7.58779 4.23068 6.47839 4.33178 5.382 4.5192L4.63946 4.64764C5.48614 2.35538 6.98014 0.780075 8.7 0.615563V4.21684ZM5.48423 5.11054C6.54683 4.92879 7.62205 4.8306 8.7 4.81687V8.7H3.90454C3.9246 7.54621 4.09965 6.40035 4.425 5.2932L5.48423 5.11054ZM3.90454 9.3H8.7V13.1831C7.62195 13.1694 6.54663 13.0712 5.48393 12.8895L4.425 12.7068C4.09965 11.5996 3.9246 10.4538 3.90454 9.3ZM5.38166 13.4808C6.47816 13.6685 7.58765 13.7701 8.7 13.7848V17.3848C6.98014 17.2194 5.48614 15.6447 4.63946 13.3529L5.38166 13.4808ZM9.3 13.7848C10.4122 13.7701 11.5216 13.6685 12.618 13.4808L13.3605 13.3524C12.5139 15.6446 11.0199 17.22 9.3 17.3845V13.7848ZM12.5158 12.8895C11.4532 13.0712 10.378 13.1694 9.3 13.1831V9.3H14.0955C14.0754 10.4538 13.9003 11.5996 13.575 12.7068L12.5158 12.8895ZM14.6951 8.7C14.6753 7.58654 14.5172 6.47985 14.2242 5.40544L16.7837 5.84707C17.1526 6.75492 17.3587 7.72065 17.3925 8.7H14.6951ZM16.4802 5.18587L14.0268 4.7625C13.5857 3.32354 12.7605 2.03215 11.6399 1.02743C13.7354 1.7267 15.4732 3.21968 16.4802 5.18587H16.4802ZM6.36008 1.02739C5.23951 2.03213 4.41427 3.32352 3.97324 4.7625L1.51976 5.18587C2.52679 3.21967 4.26458 1.72667 6.36008 1.02739ZM1.51976 12.8142L3.97324 13.2375C4.41428 14.6765 5.23952 15.9678 6.36008 16.9726C4.26459 16.2733 2.5268 14.7803 1.51976 12.8141V12.8142ZM11.6399 16.9725C12.7605 15.9678 13.5857 14.6764 14.0268 13.2375L16.4802 12.8141C15.4732 14.7803 13.7354 16.2733 11.6399 16.9726V16.9725Z" fill="#C8BFB0"/>
</svg>
