<svg width="19" height="25" viewBox="0 0 19 25" fill="none" xmlns="http://www.w3.org/2000/svg">
<path d="M9.37519 0C6.88975 0.00330731 4.50706 0.99211 2.74958 2.74958C0.99211 4.50706 0.00330731 6.88975 0 9.37519C0 16.1058 8.73455 24.5357 9.10565 24.8911C9.17784 24.9613 9.27453 25.0005 9.37519 25.0005C9.47585 25.0005 9.57254 24.9613 9.64473 24.8911C10.0158 24.5357 18.7504 16.1058 18.7504 9.37519C18.7471 6.88975 17.7583 4.50706 16.0008 2.74958C14.2433 0.99211 11.8606 0.00330731 9.37519 0ZM9.37519 13.6722C8.52533 13.6722 7.69456 13.4201 6.98793 12.948C6.28129 12.4758 5.73054 11.8047 5.40531 11.0196C5.08009 10.2344 4.99499 9.37042 5.16079 8.53689C5.32659 7.70337 5.73584 6.93772 6.33678 6.33678C6.93772 5.73584 7.70336 5.32659 8.53689 5.16079C9.37042 4.99499 10.2344 5.08009 11.0196 5.40531C11.8047 5.73054 12.4758 6.28129 12.948 6.98793C13.4201 7.69456 13.6722 8.52533 13.6722 9.37519C13.6714 10.5146 13.2185 11.6071 12.4128 12.4128C11.6071 13.2185 10.5146 13.6714 9.37519 13.6722Z" fill="#022858"/>
</svg>
