<svg width="20" height="20" viewBox="0 0 20 20" fill="none" xmlns="http://www.w3.org/2000/svg">
<path d="M9.99995 0C4.48601 0 0 4.48591 0 9.99995C0 15.514 4.48601 20 9.99995 20C15.5139 20 19.9999 15.514 19.9999 9.99995C19.9999 4.48591 15.514 0 9.99995 0ZM15.7421 8.31087L9.45963 14.5933C9.32862 14.7251 9.17278 14.8295 9.00114 14.9006C8.82949 14.9717 8.64545 15.008 8.45967 15.0075C8.08193 15.0075 7.72684 14.8605 7.45971 14.5933L4.2578 11.3914C4.12606 11.2604 4.02162 11.1046 3.95051 10.9329C3.8794 10.7613 3.84304 10.5772 3.84354 10.3915C3.84354 10.0136 3.99067 9.65852 4.2578 9.39139C4.38879 9.25963 4.54463 9.15518 4.71627 9.08407C4.88792 9.01296 5.07197 8.97661 5.25776 8.97713C5.6355 8.97713 5.9907 9.12426 6.25773 9.3915L8.45957 11.5932L13.742 6.31084C13.873 6.17912 14.0288 6.07469 14.2005 6.0036C14.3721 5.93251 14.5561 5.89617 14.7419 5.89669C15.1197 5.89669 15.4748 6.04371 15.7419 6.31084C16.2935 6.86242 16.2935 7.7595 15.7421 8.31087Z" fill="#022858"/>
</svg>
