<svg width="42" height="40" viewBox="0 0 42 40" fill="none" xmlns="http://www.w3.org/2000/svg">
<path d="M6.22254 6.86208L7.54975 9.60558L10.5605 10.0153C11.1573 10.0955 11.371 10.8348 10.9613 11.2267L8.76116 13.3378L9.30451 16.3307C9.4114 16.9186 8.78788 17.364 8.27125 17.0789L5.59011 15.6359L2.90897 17.0789C2.39234 17.3551 1.74209 16.9275 1.88461 16.2862L2.41906 13.3289L0.21892 11.2178C-0.208638 10.8081 0.0229561 10.0777 0.628662 9.9975L3.63047 9.58776L4.95768 6.84427C5.20709 6.31873 5.97313 6.32763 6.22254 6.86208ZM6.43632 10.5676L5.59011 8.8039L4.735 10.5676C4.63701 10.7725 4.43214 10.9328 4.19164 10.9684L2.25873 11.2267L3.67501 12.5807C3.83534 12.741 3.92442 12.9726 3.87988 13.2131L3.53249 15.1371L5.24272 14.2196C5.44759 14.1127 5.70591 14.0949 5.91969 14.2196L7.63882 15.146L7.30034 13.2576C7.24689 13.026 7.30925 12.7677 7.4963 12.5807L8.91259 11.2267L6.99749 10.9684C6.76589 10.9417 6.54321 10.7903 6.43632 10.5676ZM21.383 0.404182L22.7102 3.14768L25.7298 3.55742C26.3266 3.63759 26.5404 4.3769 26.1307 4.77774L23.9305 6.8888L24.4739 9.88171C24.5808 10.4696 23.9573 10.915 23.4406 10.6299L20.7417 9.18692L18.0605 10.6299C17.5439 10.9061 16.8937 10.4785 17.0362 9.83717L17.5706 6.8799L15.3616 4.76883C14.934 4.35909 15.1656 3.62868 15.7713 3.54851L18.7731 3.13877L20.1003 0.404182C20.3676 -0.139172 21.1247 -0.130264 21.383 0.404182ZM21.5968 4.10968L20.7417 2.34601L19.8955 4.10968C19.7975 4.31455 19.5926 4.47489 19.3521 4.51052L17.4103 4.76883L18.8266 6.12276C18.9958 6.2831 19.076 6.51469 19.0314 6.75519L18.6841 8.6792L20.4032 7.76173C20.6081 7.65484 20.8575 7.63703 21.0802 7.76173L22.7993 8.68811L22.4608 6.79973C22.4074 6.56814 22.4697 6.30982 22.6568 6.12276L24.0731 4.76883L22.158 4.50161C21.9175 4.48379 21.7037 4.33237 21.5968 4.10968ZM36.5346 6.86208L37.8618 9.60558L40.8725 10.0153C41.4693 10.0955 41.692 10.8348 41.2733 11.2267L39.0732 13.3378L39.6166 16.3307C39.7234 16.9186 39.0999 17.364 38.5833 17.0789L35.9022 15.6359L33.221 17.0789C32.7044 17.3551 32.0541 16.9275 32.1877 16.2862L32.7222 13.3289L30.5221 11.2178C30.0945 10.8081 30.3261 10.0777 30.9318 9.9975L33.9336 9.58776L35.2608 6.84427C35.5191 6.31873 36.2852 6.32763 36.5346 6.86208ZM36.7484 10.5676L35.9022 8.8039L35.047 10.5676C34.9491 10.7725 34.7531 10.9328 34.5037 10.9684L32.5708 11.2267L33.9781 12.5807C34.1385 12.741 34.2276 12.9726 34.183 13.2131L33.8356 15.1371L35.5548 14.2196C35.7596 14.1127 36.0179 14.0949 36.2317 14.2196L37.9598 15.146L37.6213 13.2576C37.5678 13.026 37.6302 12.7677 37.8173 12.5807L39.2246 11.2267L37.3095 10.9684C37.0779 10.9417 36.8552 10.7903 36.7484 10.5676ZM17.437 25.0511C17.241 24.7126 17.3568 24.2761 17.6953 24.0802C18.0338 23.8842 18.4703 24 18.6662 24.3385L19.6015 25.9596L22.924 22.6372C23.2001 22.361 23.6544 22.361 23.9305 22.6372C24.2067 22.9133 24.2067 23.3676 23.9305 23.6437L19.9489 27.6253C19.6193 27.9549 19.0671 27.8837 18.8355 27.4828L17.437 25.0511ZM20.7417 17.5243C24.6164 17.5243 27.7607 20.6686 27.7607 24.5434C27.7607 28.4181 24.6164 31.5624 20.7417 31.5624C16.8669 31.5624 13.7226 28.4181 13.7226 24.5434C13.7226 20.6686 16.8669 17.5243 20.7417 17.5243ZM24.6966 20.5885C22.5143 18.4061 18.9691 18.4061 16.7868 20.5885C14.6044 22.7708 14.6044 26.3159 16.7868 28.4983C18.9691 30.6806 22.5143 30.6806 24.6966 28.4983C26.8789 26.307 26.8789 22.7708 24.6966 20.5885ZM20.7417 13.1151C27.0481 13.1151 32.161 18.228 32.161 24.5345C32.161 26.9216 31.4306 29.1396 30.1747 30.9745L33.5862 36.8802C33.9158 37.4324 33.4615 38.056 32.8736 37.9669L29.3819 37.4146L27.5113 39.7127C27.1818 40.1403 26.5671 40.069 26.3266 39.6415L23.9394 35.5084C21.8551 36.1141 19.6193 36.1141 17.5439 35.5084L15.1567 39.6415C14.9162 40.069 14.3016 40.1403 13.972 39.7127L12.1015 37.4146L8.60973 37.9669C8.01294 38.0649 7.59429 37.4146 7.87932 36.9069L11.3087 30.9745C8.2089 26.4406 8.78788 20.339 12.6715 16.4554C14.7291 14.3978 17.5884 13.1151 20.7417 13.1151ZM29.2305 32.177C28.1438 33.3885 26.8076 34.3594 25.2934 35.0185L27.0392 38.0381L28.5357 36.2032C28.7049 35.9894 28.9633 35.9093 29.2127 35.9538L31.6177 36.3368L29.2305 32.177ZM16.1811 35.0185C14.6757 34.3594 13.3396 33.3885 12.2529 32.186L9.85678 36.3368L12.2618 35.9538C12.5023 35.9093 12.7695 35.9983 12.9388 36.2032L14.4352 38.0381L16.1811 35.0185ZM27.8142 17.4709C23.9127 13.5694 17.5795 13.5694 13.6781 17.4709C9.77661 21.3723 9.77661 27.7055 13.6781 31.607C17.5884 35.5084 23.9127 35.5084 27.8142 31.607C31.7157 27.7055 31.7157 21.3723 27.8142 17.4709Z" fill="#022858"/>
</svg>
