<svg width="27" height="20" viewBox="0 0 31 24" fill="none" xmlns="http://www.w3.org/2000/svg">
<path d="M27.2727 10.275C26.585 9.9731 25.842 9.81753 25.0909 9.81818H5.45455C4.70353 9.81746 3.96055 9.97279 3.27273 10.2743C2.30059 10.6994 1.47337 11.3986 0.892155 12.2863C0.310945 13.1739 0.000928941 14.2117 0 15.2727V22.9091C0 23.1984 0.114935 23.4759 0.31952 23.6805C0.524105 23.8851 0.801582 24 1.09091 24C1.38024 24 1.65771 23.8851 1.8623 23.6805C2.06688 23.4759 2.18182 23.1984 2.18182 22.9091V22.3636C2.18359 22.2195 2.24162 22.0818 2.34353 21.9799C2.44545 21.878 2.58316 21.82 2.72727 21.8182H27.8182C27.9623 21.82 28.1 21.878 28.2019 21.9799C28.3038 22.0818 28.3619 22.2195 28.3636 22.3636V22.9091C28.3636 23.1984 28.4786 23.4759 28.6832 23.6805C28.8877 23.8851 29.1652 24 29.4545 24C29.7439 24 30.0214 23.8851 30.2259 23.6805C30.4305 23.4759 30.5455 23.1984 30.5455 22.9091V15.2727C30.5444 14.2118 30.2343 13.1742 29.6531 12.2866C29.0719 11.3991 28.2448 10.7001 27.2727 10.275ZM23.4545 0H7.09091C6.07826 0 5.1071 0.402272 4.39105 1.11832C3.675 1.83437 3.27273 2.80554 3.27273 3.81818V8.72727C3.27276 8.76954 3.28261 8.81121 3.30151 8.84902C3.3204 8.88682 3.34783 8.91971 3.38161 8.9451C3.4154 8.97049 3.45462 8.98768 3.49619 8.99532C3.53776 9.00295 3.58053 9.00082 3.62114 8.98909C4.21668 8.81491 4.83406 8.72674 5.45455 8.72727H5.74295C5.81027 8.7277 5.87537 8.70322 5.92572 8.65853C5.97607 8.61385 6.00811 8.55212 6.01568 8.48523C6.07518 7.95218 6.32895 7.45972 6.72852 7.10191C7.12809 6.74409 7.64546 6.546 8.18182 6.54545H12C12.5367 6.5455 13.0546 6.74336 13.4546 7.10122C13.8546 7.45908 14.1086 7.95183 14.1682 8.48523C14.1758 8.55212 14.2078 8.61385 14.2581 8.65853C14.3085 8.70322 14.3736 8.7277 14.4409 8.72727H16.1086C16.176 8.7277 16.2411 8.70322 16.2914 8.65853C16.3417 8.61385 16.3738 8.55212 16.3814 8.48523C16.4408 7.95253 16.6943 7.46035 17.0934 7.10259C17.4926 6.74482 18.0094 6.5465 18.5455 6.54545H22.3636C22.9004 6.5455 23.4182 6.74336 23.8182 7.10122C24.2182 7.45908 24.4723 7.95183 24.5318 8.48523C24.5394 8.55212 24.5714 8.61385 24.6218 8.65853C24.6721 8.70322 24.7372 8.7277 24.8045 8.72727H25.0909C25.7114 8.72697 26.3288 8.81537 26.9243 8.98977C26.965 9.00152 27.0078 9.00364 27.0494 8.99597C27.0911 8.9883 27.1303 8.97105 27.1641 8.94558C27.1979 8.92011 27.2253 8.88713 27.2442 8.84924C27.263 8.81135 27.2728 8.76959 27.2727 8.72727V3.81818C27.2727 2.80554 26.8705 1.83437 26.1544 1.11832C25.4384 0.402272 24.4672 0 23.4545 0Z" fill="#C8BFB0"/>
</svg>
