<svg width="18" height="28" viewBox="0 0 18 28" fill="none" xmlns="http://www.w3.org/2000/svg">
<path d="M0 1.32392C0 0.585241 0.574436 0 1.31876 0H16.7069C17.4518 0 18 0.585241 18 1.32392V28H12.1285V23.5928C12.1285 23.1592 11.8126 22.805 11.3775 22.805H6.62862C6.1929 22.805 5.87208 23.1592 5.87208 23.5928V28H0.0012207V1.32392H0ZM10.0856 18.9272C10.0855 18.9874 10.0974 19.047 10.1206 19.1026C10.1437 19.1582 10.1777 19.2087 10.2206 19.2512C10.2634 19.2937 10.3143 19.3275 10.3703 19.3504C10.4264 19.3734 10.4864 19.3852 10.547 19.3851H13.3269C13.4492 19.385 13.5665 19.3367 13.653 19.2508C13.7395 19.165 13.7881 19.0486 13.7883 18.9272V16.1684C13.7883 15.9155 13.5811 15.7099 13.3269 15.7099H10.547C10.2916 15.7099 10.0856 15.9155 10.0856 16.1684V18.9272ZM10.0856 12.845C10.0855 12.9051 10.0974 12.9647 10.1206 13.0203C10.1437 13.0759 10.1777 13.1264 10.2206 13.1689C10.2634 13.2115 10.3143 13.2452 10.3703 13.2682C10.4264 13.2912 10.4864 13.3029 10.547 13.3029H13.3269C13.4492 13.3027 13.5665 13.2544 13.653 13.1686C13.7395 13.0827 13.7881 12.9664 13.7883 12.845V10.0862C13.7883 9.83327 13.5811 9.62828 13.3269 9.62828H10.547C10.2916 9.62828 10.0856 9.83327 10.0856 10.0862V12.845ZM10.0856 6.63718C10.0855 6.69733 10.0974 6.75691 10.1206 6.8125C10.1437 6.86809 10.1777 6.9186 10.2206 6.96113C10.2634 7.00366 10.3143 7.03739 10.3703 7.06037C10.4264 7.08335 10.4864 7.09514 10.547 7.09506H13.3269C13.4492 7.0949 13.5665 7.04661 13.653 6.96078C13.7395 6.87494 13.7881 6.75857 13.7883 6.63718V3.87836C13.7883 3.62546 13.5811 3.42048 13.3269 3.42048H10.547C10.2916 3.42048 10.0856 3.62546 10.0856 3.87836V6.63718ZM4.21232 18.9272C4.21232 19.1801 4.4201 19.3851 4.67432 19.3851H7.45422C7.51483 19.3852 7.57486 19.3734 7.63088 19.3504C7.68689 19.3275 7.73778 19.2937 7.78064 19.2512C7.8235 19.2087 7.85749 19.1582 7.88064 19.1026C7.9038 19.047 7.91568 18.9874 7.9156 18.9272V16.1684C7.9156 15.9155 7.70966 15.7099 7.45422 15.7099H4.67432C4.4201 15.7099 4.21232 15.9155 4.21232 16.1684V18.9272ZM4.21232 12.845C4.21232 13.0979 4.4201 13.3029 4.67432 13.3029H7.45422C7.51483 13.3029 7.57486 13.2912 7.63088 13.2682C7.68689 13.2452 7.73778 13.2115 7.78064 13.1689C7.8235 13.1264 7.85749 13.0759 7.88064 13.0203C7.9038 12.9647 7.91568 12.9051 7.9156 12.845V10.0862C7.9156 9.83327 7.70966 9.62828 7.45422 9.62828H4.67432C4.4201 9.62828 4.21232 9.83327 4.21232 10.0862V12.845ZM4.21232 6.63718C4.21232 6.89008 4.4201 7.09506 4.67432 7.09506H7.45422C7.51483 7.09514 7.57486 7.08335 7.63088 7.06037C7.68689 7.03739 7.73778 7.00366 7.78064 6.96113C7.8235 6.9186 7.85749 6.86809 7.88064 6.8125C7.9038 6.75691 7.91568 6.69733 7.9156 6.63718V3.87836C7.9156 3.62546 7.70966 3.42048 7.45422 3.42048H4.67432C4.4201 3.42048 4.21232 3.62546 4.21232 3.87836V6.63718Z" fill="#B8AA94"/>
</svg>
