<svg width="21" height="21" viewBox="0 0 21 21" fill="none" xmlns="http://www.w3.org/2000/svg">
<path d="M11.1153 12.3047H13.5762V18.5392H11.1153V12.3047ZM7.42383 12.3047H9.88479V18.5392H7.42383V12.3047ZM10.5 7.38281C10.1605 7.38281 9.88479 7.65856 9.88479 7.99805C9.88479 8.33754 10.1605 8.61329 10.5 8.61329C10.8395 8.61329 11.1153 8.33754 11.1153 7.99805C11.1153 7.65856 10.8395 7.38281 10.5 7.38281Z" fill="#B8AA94"/>
<path d="M20.385 17.3091H18.5392V10.7055L10.5001 4.48535L2.50198 10.6743V17.3091H0.61524C0.275217 17.3091 0 17.5843 0 17.9243C0 18.2644 0.275217 18.5396 0.61524 18.5396H6.19342V11.6899C6.19342 11.3499 6.46864 11.0747 6.80866 11.0747H14.1915C14.5316 11.0747 14.8068 11.3499 14.8068 11.6899V18.5396H20.385C20.725 18.5396 21.0002 18.2644 21.0002 17.9243C21.0002 17.5843 20.725 17.3091 20.385 17.3091ZM10.5001 9.84418C9.48253 9.84418 8.65438 9.01602 8.65438 7.99846C8.65438 6.98089 9.48253 6.15273 10.5001 6.15273C11.5177 6.15273 12.3458 6.98089 12.3458 7.99846C12.3458 9.01602 11.5177 9.84418 10.5001 9.84418Z" fill="#B8AA94"/>
<path d="M20.7479 7.74672L10.8637 0.118113C10.758 0.0413462 10.6307 0 10.5001 0C10.3695 0 10.2423 0.0413462 10.1366 0.118113L0.252357 7.74689C-0.0280282 7.95246 -0.0802416 8.34178 0.123239 8.61335L0.862183 9.59806C1.0655 9.86803 1.44535 9.92283 1.71663 9.72603L10.5001 2.92931L19.2843 9.72579C19.5558 9.92463 19.9362 9.86582 20.1381 9.59778L20.877 8.61306C21.0805 8.34154 21.0281 7.95217 20.7479 7.7468V7.74672ZM3.11724 1.23047C2.77743 1.23047 2.502 1.50589 2.502 1.84571V4.48853C3.31703 3.85452 4.13175 3.2201 4.94615 2.58527L4.96296 2.57214V1.84571C4.96296 1.50589 4.68754 1.23047 4.34772 1.23047H3.11724ZM5.02785 20.1097C4.9809 20.2035 4.95873 20.3077 4.96347 20.4124C4.96821 20.5172 4.99969 20.619 5.05492 20.7081C5.11002 20.7974 5.18702 20.871 5.2786 20.9222C5.37019 20.9733 5.47332 21.0001 5.5782 21.0002H15.422C15.6353 21.0002 15.833 20.8896 15.9453 20.7081C16.0006 20.619 16.0321 20.5172 16.0369 20.4124C16.0416 20.3077 16.0194 20.2034 15.9724 20.1097L15.8024 19.7697H5.19786L5.02785 20.1097Z" fill="#B8AA94"/>
</svg>
