<svg width="41" height="30" viewBox="0 0 41 30" fill="none" xmlns="http://www.w3.org/2000/svg">
<path d="M1.35646 11.6602C1.25438 11.6602 1.15329 11.6802 1.05896 11.7192C0.964638 11.7583 0.878926 11.8155 0.806725 11.8876C0.734523 11.9598 0.677248 12.0455 0.63817 12.1398C0.599093 12.2341 0.57898 12.3352 0.57898 12.4372V16.3238C0.578935 16.4259 0.599014 16.5271 0.63807 16.6214C0.677126 16.7157 0.734393 16.8015 0.806597 16.8737C0.878801 16.9459 0.964528 17.0032 1.05888 17.0422C1.15322 17.0813 1.25434 17.1013 1.35646 17.1013C1.45853 17.1013 1.55961 17.0812 1.65391 17.0421C1.74822 17.003 1.8339 16.9458 1.90605 16.8736C1.97821 16.8014 2.03544 16.7156 2.07446 16.6213C2.11348 16.527 2.13354 16.4259 2.13348 16.3238V12.4372C2.13349 12.3352 2.1134 12.2341 2.07436 12.1399C2.03532 12.0456 1.97808 11.9599 1.90593 11.8878C1.83377 11.8156 1.74811 11.7584 1.65383 11.7193C1.55955 11.6803 1.4585 11.6602 1.35646 11.6602ZM5.24566 8.47721C5.03946 8.47727 4.84172 8.55921 4.69593 8.70503C4.55013 8.85085 4.46821 9.0486 4.46818 9.2548V20.0168C4.46818 20.223 4.5501 20.4208 4.6959 20.5666C4.84171 20.7124 5.03946 20.7943 5.24566 20.7943C5.45186 20.7943 5.64962 20.7124 5.79542 20.5666C5.94123 20.4208 6.02314 20.223 6.02314 20.0168V9.2548C6.02311 9.0486 5.94119 8.85085 5.79539 8.70503C5.6496 8.55921 5.45186 8.47727 5.24566 8.47721ZM9.12963 3.10945C8.92348 3.10942 8.72576 3.19128 8.57996 3.33701C8.43415 3.48275 8.35221 3.68044 8.35215 3.88659V25.6518C8.35215 26.0811 8.70035 26.4294 9.12963 26.4294C9.5589 26.4294 9.9071 26.0811 9.9071 25.6518V3.88659C9.90701 3.68046 9.82506 3.4828 9.67926 3.33709C9.53346 3.19138 9.33576 3.10953 9.12963 3.10957V3.10945ZM13.0162 6.99615C12.9141 6.99614 12.813 7.01624 12.7187 7.0553C12.6243 7.09437 12.5386 7.15163 12.4664 7.22383C12.3942 7.29603 12.3369 7.38174 12.2978 7.47607C12.2587 7.57041 12.2386 7.67152 12.2386 7.77363V20.9878C12.2387 21.194 12.3206 21.3918 12.4664 21.5376C12.6122 21.6834 12.81 21.7653 13.0162 21.7654C13.2224 21.7653 13.4201 21.6834 13.5659 21.5376C13.7117 21.3918 13.7936 21.1941 13.7937 20.9879V7.77352C13.7937 7.56732 13.7118 7.36956 13.566 7.22376C13.4202 7.07795 13.2224 6.99615 13.0162 6.99615ZM24.7519 5.11417C24.6498 5.11417 24.5488 5.13429 24.4545 5.17337C24.3602 5.21244 24.2745 5.26972 24.2023 5.34192C24.1302 5.41412 24.0729 5.49983 24.0339 5.59416C23.9949 5.68848 23.9748 5.78957 23.9749 5.89165V23.3803C23.9749 23.8096 24.3226 24.1573 24.7519 24.1573C25.1812 24.1573 25.5294 23.8096 25.5294 23.3803V5.89165C25.5294 5.68545 25.4475 5.4877 25.3017 5.34189C25.1559 5.19609 24.9581 5.11417 24.7519 5.11417ZM32.4495 6.21856C32.2433 6.21859 32.0455 6.30053 31.8997 6.44635C31.7539 6.59217 31.6719 6.78993 31.6719 6.99615V22.5423C31.6719 22.972 32.0202 23.3199 32.4495 23.3199C32.8788 23.3199 33.2265 22.972 33.2265 22.5424V6.99615C33.2266 6.79 33.1447 6.59227 32.999 6.44645C32.8533 6.30062 32.6556 6.21865 32.4495 6.21856ZM36.336 10.1051C36.1298 10.1052 35.9321 10.1871 35.7863 10.3329C35.6405 10.4787 35.5585 10.6764 35.5585 10.8826V18.6558C35.5567 18.759 35.5755 18.8615 35.6138 18.9573C35.6521 19.0532 35.709 19.1405 35.7814 19.2141C35.8537 19.2877 35.94 19.3461 36.0352 19.386C36.1304 19.4259 36.2325 19.4465 36.3357 19.4465C36.4389 19.4465 36.5411 19.4259 36.6363 19.386C36.7315 19.3461 36.8177 19.2877 36.8901 19.2141C36.9624 19.1405 37.0194 19.0532 37.0577 18.9573C37.096 18.8615 37.1147 18.759 37.113 18.6558V10.8826C37.113 10.6765 37.0312 10.4788 36.8855 10.333C36.7397 10.1872 36.5421 10.1052 36.336 10.1051ZM28.5629 0C28.3567 0 28.1589 0.0819125 28.0131 0.227718C27.8673 0.373523 27.7854 0.571277 27.7854 0.777477V28.7609C27.7854 28.8631 27.8055 28.9642 27.8445 29.0585C27.8836 29.1529 27.9408 29.2386 28.013 29.3108C28.0852 29.383 28.171 29.4403 28.2653 29.4793C28.3597 29.5184 28.4608 29.5385 28.5629 29.5384C28.665 29.5384 28.7661 29.5183 28.8604 29.4792C28.9547 29.4402 29.0403 29.3829 29.1125 29.3107C29.1847 29.2385 29.2419 29.1528 29.2809 29.0584C29.3199 28.9641 29.34 28.863 29.3399 28.7609V0.777477C29.34 0.571347 29.2581 0.373644 29.1124 0.227845C28.9667 0.0820467 28.769 9.05778e-05 28.5629 0ZM16.9028 12.4372C16.6967 12.4373 16.499 12.5192 16.3532 12.665C16.2075 12.8108 16.1256 13.0086 16.1257 13.2147V16.3238C16.1257 16.7534 16.4735 17.1013 16.9027 17.1013C17.3318 17.1013 17.6802 16.7534 17.6802 16.3238V13.2147C17.6801 13.0085 17.5982 12.8108 17.4524 12.665C17.3066 12.5192 17.1089 12.4373 16.9027 12.4372H16.9028ZM40.2225 12.1771C40.0164 12.177 39.8187 12.2589 39.6729 12.4046C39.5271 12.5503 39.4452 12.7479 39.4451 12.9541V16.3176C39.4451 16.5237 39.5271 16.7215 39.6729 16.8673C39.8186 17.013 40.0164 17.095 40.2225 17.095C40.4287 17.095 40.6264 17.013 40.7722 16.8673C40.918 16.7215 41 16.5237 41 16.3176V12.954C40.9999 12.7479 40.9179 12.5502 40.7721 12.4045C40.6263 12.2588 40.4287 12.177 40.2225 12.1771ZM20.7164 10.695C20.6143 10.6949 20.5132 10.7149 20.4189 10.754C20.3245 10.793 20.2388 10.8502 20.1666 10.9224C20.0944 10.9945 20.0371 11.0802 19.998 11.1745C19.9589 11.2688 19.9388 11.3699 19.9388 11.472V17.7995C19.937 17.9027 19.9558 18.0052 19.9941 18.1011C20.0324 18.1969 20.0893 18.2842 20.1617 18.3578C20.234 18.4314 20.3203 18.4898 20.4155 18.5297C20.5107 18.5696 20.6129 18.5902 20.7161 18.5902C20.8193 18.5902 20.9214 18.5696 21.0166 18.5297C21.1118 18.4898 21.1981 18.4314 21.2704 18.3578C21.3428 18.2842 21.3997 18.1969 21.438 18.1011C21.4763 18.0052 21.4951 17.9027 21.4933 17.7995V11.472C21.4933 11.37 21.4732 11.2689 21.4342 11.1747C21.3952 11.0804 21.3379 10.9947 21.2658 10.9226C21.1937 10.8504 21.108 10.7932 21.0137 10.7541C20.9195 10.7151 20.8184 10.695 20.7164 10.695Z" fill="white"/>
</svg>
