<svg width="21" height="21" viewBox="0 0 25 25" fill="none" xmlns="http://www.w3.org/2000/svg">
<path d="M23.6722 20.4525C23.777 20.348 23.8603 20.2238 23.917 20.087C23.9738 19.9503 24.003 19.8037 24.003 19.6556C24.003 19.5076 23.9738 19.361 23.917 19.2242C23.8603 19.0875 23.777 18.9633 23.6722 18.8588L20.4711 15.6562C20.0248 15.21 19.2842 15.1992 18.8469 15.6562C18.6426 15.8685 18.5297 16.1525 18.5325 16.447C18.5353 16.7416 18.6536 17.0234 18.8619 17.2317L20.1626 18.532H7.84623C7.21555 18.532 6.6107 18.2815 6.16475 17.8355C5.71879 17.3896 5.46826 16.7847 5.46826 16.1541V3.83906L6.76857 5.13937C6.87272 5.24524 6.9968 5.32943 7.13366 5.3871C7.27051 5.44477 7.41743 5.47477 7.56594 5.47538C7.71444 5.47598 7.8616 5.44718 7.99892 5.39062C8.13624 5.33407 8.261 5.25089 8.36601 5.14588C8.47102 5.04087 8.5542 4.91611 8.61076 4.77879C8.66731 4.64147 8.69611 4.49431 8.69551 4.3458C8.6949 4.1973 8.6649 4.05038 8.60723 3.91353C8.54956 3.77667 8.46537 3.65259 8.35951 3.54844L5.13498 0.328125C4.92482 0.118136 4.63988 0.000180161 4.34279 0.000180161C4.0457 0.000180161 3.76076 0.118136 3.5506 0.328125L0.328414 3.54844C0.120128 3.75678 0.00187927 4.03852 -0.00092551 4.33311C-0.00373029 4.6277 0.109133 4.91163 0.313414 5.12391C0.750758 5.57812 1.49138 5.56781 1.93716 5.12391L3.21826 3.83906V16.1531C3.21826 16.7609 3.33796 17.3627 3.57054 17.9242C3.80312 18.4857 4.14401 18.9958 4.57376 19.4256C5.44167 20.2935 6.61881 20.7811 7.84623 20.7811H20.1626L18.8619 22.0814C18.7541 22.1851 18.6682 22.3093 18.609 22.4466C18.5499 22.584 18.5187 22.7317 18.5173 22.8812C18.5159 23.0308 18.5443 23.1791 18.6009 23.3175C18.6575 23.4559 18.7411 23.5816 18.8468 23.6874C18.9526 23.7931 19.0784 23.8767 19.2168 23.9332C19.3552 23.9898 19.5035 24.0181 19.6531 24.0167C19.8026 24.0153 19.9503 23.984 20.0876 23.9248C20.225 23.8656 20.3491 23.7796 20.4528 23.6719L23.6722 20.4525ZM22.8786 14.1094C23.1769 14.1094 23.4631 13.9908 23.6741 13.7799C23.885 13.5689 24.0036 13.2827 24.0036 12.9844V4.62609C24.0017 3.39942 23.5135 2.22356 22.6459 1.35634C21.7783 0.489133 20.6023 0.00136376 19.3756 0L11.0159 0C10.7175 0 10.4314 0.118526 10.2204 0.329505C10.0094 0.540483 9.89091 0.826631 9.89091 1.125C9.89091 1.42337 10.0094 1.70952 10.2204 1.9205C10.4314 2.13147 10.7175 2.25 11.0159 2.25H19.3756C20.006 2.25074 20.6105 2.50152 21.0563 2.94731C21.5021 3.39311 21.7528 3.99752 21.7536 4.62797V12.9844C21.7536 13.2827 21.8721 13.5689 22.0831 13.7799C22.2941 13.9908 22.5802 14.1094 22.8786 14.1094Z" fill="#C8BFB0"/>
<path d="M14.913 14.0793C15.0871 14.0793 15.254 14.0102 15.3771 13.8871C15.5001 13.7641 15.5693 13.5971 15.5693 13.4231V10.71C15.5689 10.3084 15.4514 9.91559 15.231 9.57986C15.0106 9.24413 14.697 8.98005 14.3286 8.82002C13.9603 8.65999 13.5532 8.61098 13.1574 8.679C12.7616 8.74702 12.3943 8.92911 12.1005 9.20293C11.8016 8.92275 11.4259 8.73818 11.0214 8.67287C10.617 8.60756 10.2023 8.66449 9.83037 8.83637C9.75171 8.71995 9.63775 8.63186 9.50528 8.58504C9.3728 8.53823 9.2288 8.53517 9.09445 8.57631C8.96011 8.61745 8.84252 8.70063 8.75897 8.8136C8.67543 8.92657 8.63035 9.06337 8.63037 9.20387V13.4226C8.63037 13.5967 8.69951 13.7636 8.82258 13.8867C8.94565 14.0097 9.11257 14.0789 9.28662 14.0789C9.46067 14.0789 9.62759 14.0097 9.75066 13.8867C9.87373 13.7636 9.94287 13.5967 9.94287 13.4226V10.71C9.94287 10.5111 10.0219 10.3203 10.1625 10.1796C10.3032 10.039 10.494 9.95997 10.6929 9.95997C10.8918 9.95997 11.0825 10.039 11.2232 10.1796C11.3639 10.3203 11.4429 10.5111 11.4429 10.71V13.4231C11.4429 13.5971 11.512 13.7641 11.6351 13.8871C11.7582 14.0102 11.9251 14.0793 12.0991 14.0793C12.2732 14.0793 12.4401 14.0102 12.5632 13.8871C12.6862 13.7641 12.7554 13.5971 12.7554 13.4231V10.71C12.7554 10.5111 12.8344 10.3203 12.975 10.1796C13.1157 10.039 13.3065 9.95997 13.5054 9.95997C13.7043 9.95997 13.895 10.039 14.0357 10.1796C14.1764 10.3203 14.2554 10.5111 14.2554 10.71V13.4231C14.2554 13.5094 14.2724 13.5948 14.3055 13.6746C14.3385 13.7543 14.387 13.8267 14.4481 13.8876C14.5092 13.9486 14.5817 13.9969 14.6615 14.0298C14.7412 14.0627 14.8267 14.0795 14.913 14.0793ZM18.9129 7.67106V7.60778C18.9124 7.24469 18.7753 6.89508 18.5288 6.62845C18.2824 6.36181 17.9446 6.19768 17.5827 6.16868C17.2208 6.13968 16.8612 6.24794 16.5754 6.47193C16.2897 6.69592 16.0987 7.01924 16.0404 7.37762C16.0227 7.48833 16.0496 7.60154 16.1154 7.69235C16.1812 7.78316 16.2803 7.84412 16.391 7.86184C16.5017 7.87956 16.6149 7.85257 16.7057 7.78681C16.7965 7.72106 16.8575 7.62192 16.8752 7.51122C16.8997 7.36216 16.9794 7.22776 17.0984 7.1347C17.2174 7.04165 17.367 6.99674 17.5176 7.0089C17.6681 7.02106 17.8086 7.0894 17.9112 7.20034C18.0137 7.31128 18.0707 7.45672 18.071 7.60778V7.6345C18.0622 7.77322 18.0018 7.90364 17.9018 8.00012L16.1562 9.74575C16.0973 9.80469 16.0572 9.87974 16.0409 9.96144C16.0246 10.0431 16.0329 10.1278 16.0647 10.2048C16.0965 10.2818 16.1503 10.3477 16.2195 10.3941C16.2887 10.4406 16.37 10.4655 16.4533 10.4657H18.4919C18.6038 10.4657 18.7111 10.4213 18.7902 10.3422C18.8694 10.2631 18.9138 10.1558 18.9138 10.0439C18.9138 9.93198 18.8694 9.82468 18.7902 9.74556C18.7111 9.66644 18.6038 9.622 18.4919 9.622H17.4719L18.4976 8.59684C18.747 8.35113 18.8952 8.02077 18.9129 7.67106Z" fill="#C8BFB0"/>
</svg>
