<svg width="44" height="48" viewBox="0 0 44 48" fill="none" xmlns="http://www.w3.org/2000/svg">
<path d="M38.8 43.2V0H5.2V43.2H0.399963V48H43.5999V43.2H38.8ZM19.6 4.80003H24.4V9.60007H19.6V4.80003ZM19.6 14.4H24.4V19.2H19.6V14.4ZM19.6 23.9999H24.4V28.8H19.6V23.9999ZM14.8 28.8H9.99992V23.9999H14.8V28.8ZM14.8 19.2H9.99992V14.4H14.8V19.2ZM14.8 9.59996H9.99992V4.80003H14.8V9.59996ZM26.8 43.2H17.2V38.3999C17.2 35.7599 19.36 33.5999 22.0001 33.5999C24.6401 33.5999 26.8 35.76 26.8 38.3999V43.2ZM34 28.8H29.1999V23.9999H34V28.8ZM34 19.2H29.1999V14.4H34V19.2ZM34 9.59996H29.1999V4.80003H34V9.59996Z" fill="#C8BFB0"/>
</svg>
