<svg width="48" height="48" viewBox="0 0 48 48" fill="none" xmlns="http://www.w3.org/2000/svg">
<path d="M0 39.5618H48V45.1868H0V39.5618ZM36.75 26.9369C36.75 26.1442 36.1052 25.4994 35.3125 25.4994C34.5199 25.4994 33.8751 26.1442 33.8751 26.9369V36.7494H36.75V26.9369ZM14.125 26.9369C14.125 26.1442 13.4802 25.4994 12.6876 25.4994C11.8949 25.4994 11.2501 26.1442 11.2501 26.9369V36.7494H14.125V26.9369ZM25.4376 26.9369C25.4376 26.1442 24.7928 25.4994 24.0001 25.4994C23.2074 25.4994 22.5625 26.1442 22.5625 26.9369V36.7494H25.4376V26.9369ZM45.1875 14.2493V11.591L24 2.81311L2.8125 11.591V14.2493H45.1875Z" fill="#C8BFB0"/>
<path d="M8.43759 36.7493V26.9369C8.43759 24.5934 10.3441 22.6869 12.6876 22.6869C15.031 22.6869 16.9375 24.5934 16.9375 26.9369V36.7494H19.75V26.9369C19.75 24.5934 21.6565 22.6869 24 22.6869C26.3435 22.6869 28.2501 24.5934 28.2501 26.9369V36.7494H31.0626V26.9369C31.0626 24.5934 32.9691 22.6869 35.3125 22.6869C37.656 22.6869 39.5625 24.5934 39.5625 26.9369V36.7494H45.1875V19.8744H48V17.0619H0V19.8744H2.8125V36.7494L8.43759 36.7493Z" fill="#C8BFB0"/>
</svg>
