<svg width="48" height="48" viewBox="0 0 48 48" fill="none" xmlns="http://www.w3.org/2000/svg">
<g clip-path="url(#clip0_35_560)">
<path d="M40.8 43.2V0H7.2V43.2H2.39996V48H45.5999V43.2H40.8ZM21.6 4.80003H26.4V9.60007H21.6V4.80003ZM21.6 14.4H26.4V19.2H21.6V14.4ZM21.6 23.9999H26.4V28.8H21.6V23.9999ZM16.8 28.8H11.9999V23.9999H16.8V28.8ZM16.8 19.2H11.9999V14.4H16.8V19.2ZM16.8 9.59996H11.9999V4.80003H16.8V9.59996ZM28.8 43.2H19.2V38.3999C19.2 35.7599 21.36 33.5999 24.0001 33.5999C26.6401 33.5999 28.8 35.76 28.8 38.3999V43.2ZM36 28.8H31.1999V23.9999H36V28.8ZM36 19.2H31.1999V14.4H36V19.2ZM36 9.59996H31.1999V4.80003H36V9.59996Z" fill="#C8BFB0"/>
</g>
<defs>
<clipPath id="clip0_35_560">
<rect width="48" height="48" fill="white"/>
</clipPath>
</defs>
</svg>
