<svg width="40" height="40" viewBox="0 0 40 40" fill="none" xmlns="http://www.w3.org/2000/svg">
<path d="M19.8604 5.08282C20.295 5.08282 20.6472 4.73056 20.6472 4.29602V0.786798C20.6472 0.352266 20.295 0 19.8604 0C19.4259 0 19.0736 0.352266 19.0736 0.786798V4.29602C19.0737 4.73056 19.426 5.08282 19.8604 5.08282ZM39.0927 27.0301L37.7028 25.6441C37.2084 25.1503 36.5494 24.8783 35.8472 24.8783C35.3982 24.8783 34.9672 24.99 34.5852 25.1993L31.966 22.5832L32.0936 22.4557C33.1562 21.3911 33.1558 19.661 32.0935 18.5999C31.7196 18.2239 31.2432 17.9663 30.7239 17.8593C30.796 17.6105 30.8325 17.3528 30.8324 17.0938C30.8324 16.3629 30.5485 15.6776 30.0346 15.1658C29.6606 14.7899 29.1843 14.5323 28.665 14.4252C28.737 14.1764 28.7736 13.9187 28.7735 13.6597C28.7735 12.9288 28.4896 12.2435 27.9748 11.731C27.6005 11.3565 27.1248 11.0997 26.6064 10.9923C26.8748 10.0667 26.6454 9.02541 25.9173 8.29603C25.3112 7.69252 24.4888 7.43314 23.6962 7.5172L18.506 6.53478C17.7144 6.38462 16.7259 6.28533 16.1019 6.85447C16.0625 6.8904 16.0224 6.93173 15.9828 6.97775C15.0153 6.62509 13.8869 6.83509 13.1121 7.609C12.5981 8.12236 12.315 8.80736 12.315 9.53783C12.315 9.80096 12.3523 10.0579 12.4233 10.3034C11.9049 10.4102 11.4295 10.6672 11.0561 11.0424C10.5411 11.5553 10.2571 12.2395 10.2566 12.9691C10.2563 13.2288 10.2928 13.4873 10.3652 13.7367C9.84639 13.8434 9.37038 14.1001 8.99627 14.475C8.48127 14.9895 8.19767 15.6749 8.19767 16.405C8.19767 16.9642 8.36462 17.4969 8.674 17.9469C8.27917 18.0808 7.92053 18.304 7.62595 18.599C6.56267 19.661 6.56228 21.3911 7.62666 22.4574L7.75377 22.584L5.13423 25.1987C4.16071 24.7404 2.96126 24.9121 2.15789 25.7144L0.767111 27.1013C0.272422 27.5954 7.81252e-05 28.2544 0 28.957C0 29.6597 0.272422 30.3188 0.767111 30.813L2.50282 32.5466C2.81024 32.8537 3.30844 32.8533 3.61548 32.5459C3.92259 32.2385 3.92227 31.7403 3.61485 31.4333L1.87914 29.6997C1.68211 29.5029 1.5736 29.2391 1.5736 28.9571C1.5736 28.6751 1.68211 28.4115 1.87868 28.2151L3.26954 26.8282C3.61704 26.4811 4.14891 26.4293 4.55282 26.6708C4.63323 26.792 4.74579 26.8884 4.8779 26.9492L12.8539 34.9135C12.8925 34.9984 12.946 35.0757 13.0117 35.1418C13.076 35.2059 13.151 35.2584 13.2332 35.2968C13.4028 35.4882 13.496 35.7352 13.4951 35.9909C13.4951 36.273 13.3866 36.5366 13.1896 36.7334L11.8001 38.1212C11.3896 38.53 10.7217 38.5299 10.3124 38.1225L8.57674 36.3866C8.26947 36.0794 7.77134 36.0794 7.46408 36.3866C7.15681 36.6939 7.15681 37.192 7.46408 37.4993L9.20103 39.2364C9.71228 39.7455 10.3837 40 11.0554 40C11.7273 40 12.3995 39.7452 12.9114 39.2355L14.3017 37.8469C14.7964 37.3527 15.0688 36.6937 15.0688 35.9909C15.0688 35.4894 14.9293 35.0105 14.67 34.5976L17.6182 31.653L17.6276 31.6434C17.9652 31.2944 18.9053 31.3598 19.8144 31.4229C20.4604 31.4678 21.1805 31.5177 21.8841 31.4366L25.1125 34.6612C24.9034 35.0426 24.7918 35.473 24.7918 35.9213C24.7918 36.6233 25.0642 37.2819 25.5589 37.7761L26.9493 39.1648C27.4436 39.6586 28.1026 39.9306 28.8048 39.9306C29.5069 39.9306 30.1659 39.6587 30.6604 39.1648L39.0933 30.7421C39.588 30.248 39.8604 29.589 39.8604 28.8863C39.8603 28.1837 39.5879 27.5247 39.0927 27.0301ZM18.213 8.08088L21.6261 8.72689L19.5832 10.769C19.2671 10.6171 18.834 10.3338 18.3589 9.87932C17.7085 9.25713 17.2432 8.53877 17.2009 8.09072L17.2008 8.09002L17.2007 8.08978C17.1981 8.06403 17.197 8.03816 17.1973 8.01228C17.3002 7.98728 17.5735 7.95955 18.213 8.08088ZM14.2241 8.72236C14.6227 8.32416 15.2419 8.27822 15.6923 8.58322C15.9475 9.65338 16.8604 10.6233 17.2711 11.0163C17.5755 11.3075 18.5521 12.1807 19.5379 12.4207C19.6727 12.6142 19.7446 12.8445 19.7439 13.0803C19.7439 13.39 19.6247 13.6796 19.4076 13.8965C19.1911 14.1134 18.9011 14.2328 18.5907 14.2328C18.2803 14.2328 17.9903 14.1134 17.7728 13.8955L17.7727 13.8954L17.7723 13.895L14.224 10.3531C14.0077 10.1371 13.8885 9.84752 13.8885 9.53783C13.8886 9.22807 14.0078 8.93846 14.2241 8.72236ZM12.1681 12.1557C12.3846 11.9389 12.6744 11.8195 12.9842 11.8195C13.2945 11.8195 13.5852 11.9392 13.8031 12.1568L16.6603 15.0083C17.1102 15.4589 17.1102 16.1922 16.6618 16.6413C16.4442 16.8581 16.1531 16.9775 15.8422 16.9775C15.5314 16.9775 15.2403 16.8581 15.0235 16.6422L15.0235 16.6421L12.8559 14.475C12.8525 14.4717 12.8489 14.4685 12.8454 14.4651L12.1673 13.7873C11.9497 13.5699 11.8299 13.2798 11.8302 12.9703C11.8305 12.6617 11.9499 12.3731 12.1681 12.1557ZM10.1083 15.5884C10.3249 15.3721 10.6153 15.2529 10.9261 15.2529C11.2343 15.2529 11.5222 15.3703 11.7379 15.5829L13.9121 17.7561C14.1289 17.9721 14.2484 18.2614 14.2484 18.5707C14.2484 18.88 14.1289 19.1693 13.9113 19.3861C13.6947 19.6024 13.4046 19.7215 13.0944 19.7215C12.7837 19.7215 12.4927 19.6021 12.2758 19.3861L11.4876 18.5989L11.4871 18.5983L10.1084 17.2213C9.89104 17.0042 9.77135 16.7142 9.77135 16.4048C9.77135 16.0955 9.89104 15.8054 10.1083 15.5884ZM8.73799 19.7123C8.95556 19.495 9.24635 19.3753 9.55674 19.3753C9.86705 19.3753 10.1578 19.4949 10.3753 19.7121L11.1646 20.5004C11.3814 20.7164 11.5008 21.0057 11.5008 21.315C11.5008 21.6244 11.3814 21.9136 11.1629 22.1313C10.9464 22.3481 10.6563 22.4675 10.346 22.4675C10.0356 22.4675 9.74557 22.3482 9.52752 22.1297L9.42869 22.0313C9.42736 22.03 9.42635 22.0286 9.4251 22.0273L9.42056 22.0232L8.73877 21.3441C8.28884 20.8932 8.28845 20.1613 8.73799 19.7123ZM24.7719 28.6544C24.4648 28.3469 23.9666 28.3466 23.6593 28.6537L22.9593 29.3528C22.2941 30.018 21.0889 29.9342 19.9233 29.8533C18.6576 29.7654 17.3488 29.6746 16.5018 30.5441L13.6038 33.4387L6.35665 26.2022L8.92134 23.6421C9.34525 23.9019 9.83439 24.0412 10.3462 24.0412C11.0774 24.0412 11.763 23.7578 12.2751 23.2447C12.7906 22.7313 13.0746 22.0461 13.0746 21.3151C13.0746 21.3083 13.0742 21.3016 13.0742 21.2948C13.081 21.2949 13.0878 21.2953 13.0946 21.2953C13.8247 21.2953 14.5098 21.0127 15.0226 20.5005C15.5382 19.9871 15.8221 19.3018 15.8221 18.5709C15.8221 18.5641 15.8217 18.5574 15.8217 18.5506C15.8285 18.5506 15.8354 18.5511 15.8424 18.5511C16.5723 18.5511 17.2578 18.2688 17.774 17.7546C18.31 17.2178 18.575 16.5111 18.57 15.8059C18.577 15.806 18.584 15.8064 18.5911 15.8064C19.3222 15.8063 20.0078 15.5229 20.5207 15.0091C21.0346 14.4957 21.3178 13.8107 21.3178 13.0803C21.3178 12.5694 21.1789 12.081 20.9199 11.658L23.1678 9.41103C23.3292 9.25013 23.5347 9.14063 23.7583 9.09635C23.7818 9.09385 23.8049 9.0901 23.8278 9.08556C24.1751 9.03767 24.5399 9.14486 24.8055 9.40939C25.2554 9.8601 25.2554 10.5934 24.8072 11.0424L24.1225 11.7242C24.1203 11.7265 24.1179 11.7285 24.1156 11.7308L23.3271 12.518C23.0196 12.825 23.0193 13.3232 23.3264 13.6307C23.6336 13.9382 24.1317 13.9384 24.439 13.6314L25.1264 12.9449L25.1268 12.9445L25.2307 12.841C25.6819 12.3939 26.4129 12.3949 26.8636 12.8449C27.0804 13.0609 27.1999 13.3502 27.1999 13.6596C27.1999 13.9689 27.0804 14.2582 26.8618 14.4758L26.1733 15.1657L26.1731 15.166L25.3847 15.9513C25.0768 16.2579 25.0758 16.7561 25.3824 17.0639C25.689 17.3718 26.1872 17.3728 26.495 17.0662L27.2871 16.2774C27.5036 16.0605 27.7936 15.9411 28.104 15.9411C28.4143 15.9411 28.7045 16.0605 28.9226 16.2789C29.1394 16.495 29.2588 16.7843 29.2588 17.0936C29.2588 17.4029 29.1394 17.6922 28.9213 17.9094L27.5486 19.2826C27.2415 19.59 27.2415 20.0881 27.5488 20.3953C27.6218 20.4684 27.7085 20.5264 27.8039 20.5659C27.8994 20.6055 28.0017 20.6257 28.1051 20.6256C28.3065 20.6256 28.5079 20.5487 28.6615 20.395L29.3342 19.7221C29.338 19.7184 29.3422 19.7152 29.346 19.7114C29.5625 19.4945 29.8526 19.3751 30.1629 19.3751C30.4733 19.3751 30.7633 19.4945 30.9806 19.7121C31.4301 20.1611 31.4297 20.8932 30.9806 21.343L30.2966 22.0262L30.2958 22.0269L30.2951 22.0277L29.2095 23.112C28.9021 23.4191 28.9018 23.9173 29.2088 24.2247C29.2818 24.298 29.3686 24.3561 29.4641 24.3957C29.5597 24.4353 29.6621 24.4556 29.7655 24.4555C29.9667 24.4555 30.1679 24.3788 30.3215 24.2254L30.8526 23.695L33.3976 26.2372L26.1511 33.4748L23.5547 30.8815C23.7414 30.7618 23.9147 30.6224 24.0715 30.4657L24.7711 29.7669C25.0787 29.46 25.079 28.9618 24.7719 28.6544ZM37.9812 29.6287L29.5483 38.0514C29.351 38.2484 29.0869 38.357 28.8047 38.357C28.5226 38.357 28.2585 38.2484 28.0611 38.0513L26.6708 36.6627C26.4737 36.4659 26.3652 36.2026 26.3652 35.9213C26.3652 35.6401 26.4737 35.3768 26.6708 35.18L35.1037 26.7573C35.301 26.5602 35.565 26.4517 35.8473 26.4517C36.1294 26.4517 36.3935 26.5602 36.5913 26.7578L37.9812 28.1438C38.1783 28.3406 38.2868 28.6042 38.2868 28.8862C38.2867 29.1683 38.1782 29.432 37.9812 29.6287ZM9.41283 4.41954C9.48579 4.49254 9.57244 4.55041 9.66782 4.58985C9.76319 4.62929 9.86541 4.64953 9.96861 4.64938C10.1702 4.64938 10.3718 4.57235 10.5255 4.41837C10.8324 4.11079 10.832 3.61266 10.5244 3.30571L7.65736 0.444376C7.34986 0.137422 6.85165 0.137813 6.5447 0.44547C6.23775 0.753048 6.23822 1.25117 6.54579 1.55813L9.41283 4.41954ZM29.7522 4.64938C29.9534 4.64938 30.1547 4.57267 30.3083 4.41931L33.1731 1.55789C33.4805 1.25086 33.4808 0.752658 33.1737 0.445235C32.8667 0.137813 32.3686 0.1375 32.0611 0.44461L29.1962 3.30602C28.8888 3.61305 28.8885 4.11126 29.1956 4.41868C29.2686 4.49193 29.3554 4.55003 29.4509 4.58962C29.5464 4.62922 29.6488 4.64953 29.7522 4.64938Z" fill="#022858"/>
<path d="M4.8379 33.8442C4.53329 34.154 4.5375 34.6522 4.84743 34.9568L4.84969 34.959C4.99619 35.1035 5.19376 35.1844 5.39954 35.1842C5.60321 35.1842 5.80688 35.1053 5.96118 34.9484C6.26579 34.6385 6.2604 34.1392 5.95055 33.8346C5.64079 33.53 5.14266 33.5343 4.8379 33.8442ZM26.6963 27.5209C26.816 27.5209 26.9374 27.4937 27.0514 27.4362C27.4393 27.2405 27.5952 26.7674 27.3996 26.3794C27.2039 25.9915 26.7307 25.8355 26.3428 26.0312L26.3384 26.0334C25.9504 26.2291 25.7968 26.7012 25.9924 27.0891C26.1305 27.3632 26.4083 27.5209 26.6963 27.5209Z" fill="#022858"/>
</svg>
