<svg width="23" height="21" viewBox="0 0 23 21" fill="none" xmlns="http://www.w3.org/2000/svg">
<path d="M22.7455 8.14309L19.4877 7.14199V4.7144C19.4879 4.64684 19.469 4.58059 19.4334 4.52321C19.3977 4.46583 19.3467 4.41962 19.2861 4.38984L10.4884 0.0349059C10.4875 0.034426 10.4855 0.0344259 10.4816 0.0344259C10.465 0.0255871 10.3994 -0.00472874 10.304 0.000630532C10.2046 0.0060298 10.1322 0.0539833 10.1185 0.0647819L3.84413 4.5401C3.79711 4.57353 3.75876 4.61772 3.73228 4.66899C3.7058 4.72026 3.69196 4.77711 3.69191 4.83482V7.95952L2.52619 7.82046C2.52571 7.82046 2.52228 7.82094 2.51592 7.82194C2.50077 7.82094 2.4655 7.81946 2.43224 7.82389C2.39013 7.82929 2.35395 7.84301 2.34024 7.84837C2.33909 7.84865 2.33796 7.84897 2.33684 7.84933L0.215344 8.78928C0.151242 8.81762 0.0967585 8.86399 0.0585252 8.92274C0.0202919 8.98149 -4.15334e-05 9.0501 2.59517e-07 9.1202V15.1742C-7.7532e-05 15.2391 0.0173349 15.3028 0.0504046 15.3587C0.0834744 15.4145 0.130978 15.4604 0.187916 15.4915L2.31429 16.6575C2.31429 16.6575 2.3701 16.6899 2.43711 16.6982C2.49685 16.706 2.54039 16.6982 2.54039 16.6982L3.69139 16.5307V17.198C3.69142 17.2629 3.70888 17.3267 3.74193 17.3825C3.77499 17.4384 3.82243 17.4844 3.87931 17.5157L10.1527 20.9546C10.1527 20.9546 10.2227 20.9953 10.3142 20.9997C10.3842 21.0031 10.4527 20.9776 10.4527 20.9776V20.9757H10.4547L19.2528 17.6297L22.7665 16.2933C22.8351 16.2672 22.8942 16.2209 22.9359 16.1605C22.9776 16.1001 23 16.0284 23 15.955V8.48965C23.0007 8.41214 22.9763 8.33648 22.9304 8.27401C22.8845 8.21154 22.8196 8.16561 22.7455 8.14309ZM1.00959 13.6694C1.00959 13.7071 0.991958 13.7429 0.961612 13.7653C0.940649 13.7813 0.915055 13.7901 0.888684 13.7903C0.87777 13.7903 0.866905 13.7888 0.856378 13.7859L0.453638 13.6738C0.428181 13.6667 0.405741 13.6515 0.389749 13.6304C0.373756 13.6094 0.365091 13.5837 0.365077 13.5573V12.4343C0.365077 12.4005 0.379271 12.3677 0.4047 12.3447C0.417092 12.3334 0.431742 12.3249 0.447684 12.3196C0.463625 12.3144 0.480495 12.3126 0.497179 12.3144L0.899919 12.3535C0.961571 12.3599 1.00903 12.4113 1.00903 12.4735V13.6694H1.00959V13.6694ZM1.00959 11.278C1.00955 11.3084 0.998103 11.3376 0.977521 11.3599C0.956939 11.3822 0.928726 11.396 0.89848 11.3985L0.495739 11.4318H0.485944C0.456077 11.4318 0.42673 11.421 0.40422 11.4005C0.391857 11.3891 0.38199 11.3754 0.37525 11.36C0.36851 11.3447 0.365046 11.3281 0.365077 11.3113V10.1883C0.365077 10.1335 0.402261 10.0855 0.455117 10.0718L0.857898 9.96561C0.875764 9.961 0.894447 9.96055 0.912514 9.96429C0.930582 9.96803 0.947554 9.97585 0.962131 9.98716C0.976785 9.99827 0.988657 10.0126 0.99681 10.0291C1.00496 10.0456 1.00917 10.0638 1.00911 10.0822V11.2781H1.00959V11.278ZM2.18707 13.9969C2.18707 14.0346 2.16947 14.0698 2.13957 14.0928C2.12474 14.104 2.10754 14.1116 2.08929 14.1151C2.07104 14.1186 2.05224 14.1178 2.03433 14.1129L1.4823 13.9592C1.45687 13.9522 1.43444 13.9371 1.41844 13.9161C1.40244 13.8952 1.39376 13.8695 1.39374 13.8432V12.5346C1.39374 12.5009 1.40789 12.4681 1.43336 12.4451C1.44583 12.4337 1.46057 12.4251 1.4766 12.4199C1.49263 12.4147 1.50959 12.4129 1.52636 12.4147L2.07839 12.4685C2.10826 12.4713 2.13602 12.4852 2.15621 12.5073C2.1764 12.5295 2.18756 12.5585 2.18751 12.5885V13.9969H2.18707ZM2.18707 11.1811C2.18696 11.2113 2.17557 11.2405 2.15511 11.2628C2.13465 11.285 2.1066 11.2989 2.07647 11.3015L1.52396 11.3471H1.51417C1.48389 11.3472 1.45469 11.3358 1.43244 11.3153C1.42007 11.304 1.4102 11.2902 1.40346 11.2748C1.39672 11.2595 1.39326 11.2429 1.3933 11.2262V9.91813C1.3933 9.8633 1.43052 9.81535 1.48334 9.80115L2.03585 9.65625C2.05367 9.65144 2.07236 9.65084 2.09045 9.65449C2.10853 9.65814 2.12553 9.66594 2.14009 9.67729C2.15464 9.6886 2.16642 9.70307 2.17456 9.71961C2.1827 9.73615 2.18698 9.75432 2.18707 9.77275V11.1811ZM5.209 14.836C5.209 14.8737 5.19137 14.9094 5.1615 14.9319C5.14058 14.948 5.11496 14.9567 5.08857 14.9569C5.07734 14.9569 5.06654 14.9554 5.05627 14.9525L4.34422 14.7547C4.31883 14.7477 4.29643 14.7325 4.28044 14.7116C4.26444 14.6907 4.25573 14.6651 4.25562 14.6387V12.8142C4.25562 12.7799 4.26982 12.7476 4.29529 12.7246C4.32023 12.7016 4.35402 12.6908 4.38776 12.6933L5.09981 12.7633C5.12967 12.7661 5.15742 12.7799 5.17761 12.8021C5.1978 12.8243 5.20897 12.8532 5.20892 12.8832V14.836H5.209ZM5.209 10.9314C5.209 10.9941 5.16102 11.0465 5.09841 11.0514L4.38632 11.1101C4.38341 11.1107 4.37997 11.1107 4.37653 11.1107C4.34448 11.1106 4.31376 11.0979 4.2911 11.0752C4.26844 11.0525 4.25569 11.0218 4.25566 10.9897V9.16523C4.25566 9.1104 4.29285 9.06245 4.3457 9.04873L5.05775 8.86123C5.07561 8.85661 5.0943 8.85614 5.11237 8.85988C5.13044 8.86362 5.14741 8.87146 5.16198 8.88279C5.17655 8.89398 5.18836 8.90836 5.1965 8.92482C5.20465 8.94129 5.20891 8.95941 5.20896 8.97778V10.9314H5.209ZM5.209 7.02596C5.20911 7.04935 5.20241 7.07226 5.18973 7.09191C5.17704 7.11155 5.15891 7.12708 5.13755 7.13659L4.42551 7.45183C4.40983 7.4587 4.3932 7.46262 4.37657 7.46262C4.35358 7.46262 4.33059 7.45578 4.31052 7.44303C4.29371 7.432 4.27989 7.41696 4.27033 7.39927C4.26076 7.38158 4.25573 7.36179 4.2557 7.34168V5.51721C4.2557 5.47557 4.27725 5.4369 4.31248 5.41486L5.02452 4.97136C5.04275 4.95991 5.06371 4.95355 5.08523 4.95295C5.10675 4.95236 5.12803 4.95754 5.14687 4.96796C5.16568 4.97848 5.18135 4.99382 5.19228 5.0124C5.2032 5.03099 5.20899 5.05215 5.20904 5.07371L5.209 7.02596ZM6.98301 15.3289C6.98301 15.3666 6.96537 15.4024 6.93551 15.4249C6.91458 15.4409 6.88896 15.4497 6.86258 15.4498C6.85183 15.4498 6.84103 15.4483 6.83027 15.4454L5.87646 15.1801C5.85104 15.1731 5.8286 15.158 5.8126 15.137C5.7966 15.1161 5.78792 15.0905 5.7879 15.0641V12.9635C5.7879 12.9297 5.80209 12.8969 5.82752 12.8739C5.84005 12.8628 5.85472 12.8544 5.87062 12.8492C5.88653 12.844 5.90333 12.8421 5.92 12.8436L6.8743 12.9366C6.90405 12.9395 6.93165 12.9534 6.95173 12.9756C6.9718 12.9978 6.98292 13.0266 6.98293 13.0565V15.3289H6.98301ZM6.98301 10.7846C6.98301 10.8477 6.93503 10.8996 6.87238 10.905L5.9186 10.9838C5.91516 10.9838 5.91176 10.9843 5.90833 10.9843C5.878 10.9842 5.84884 10.9727 5.8266 10.952C5.81424 10.9407 5.80437 10.927 5.79763 10.9116C5.79089 10.8963 5.78743 10.8797 5.78746 10.8629V8.76281C5.78746 8.70798 5.82464 8.66002 5.8775 8.6463L6.83127 8.39518C6.84909 8.39034 6.86778 8.38973 6.88588 8.39338C6.90397 8.39703 6.92096 8.40485 6.93551 8.41621C6.95013 8.42746 6.96198 8.44191 6.97013 8.45847C6.97827 8.47502 6.9825 8.49323 6.98249 8.51168V10.7846H6.98301ZM6.98301 6.24027C6.98301 6.28826 6.9551 6.33182 6.91156 6.35093L5.95774 6.7734C5.94239 6.7804 5.92568 6.78391 5.90881 6.78368C5.88582 6.78368 5.86283 6.77684 5.84323 6.76412C5.82635 6.75316 5.81248 6.73814 5.80291 6.72044C5.79333 6.70273 5.78835 6.6829 5.78842 6.66277V4.56265C5.78844 4.54219 5.79366 4.52206 5.80359 4.50417C5.81353 4.48627 5.82784 4.47119 5.84519 4.46035L6.79897 3.86555C6.8172 3.8541 6.83816 3.84775 6.85967 3.84714C6.88119 3.84654 6.90247 3.85171 6.92131 3.86211C6.94013 3.87263 6.9558 3.88797 6.96673 3.90655C6.97765 3.92514 6.98344 3.9463 6.98349 3.96786V6.24027H6.98301ZM9.45143 16.0148C9.45143 16.0505 9.43771 16.0848 9.41228 16.1093C9.36822 16.1538 9.30901 16.1538 9.28846 16.1538H9.28798C9.05013 16.1538 8.12718 15.8214 7.9451 15.7553C7.92177 15.7469 7.90162 15.7314 7.88743 15.7111C7.87323 15.6908 7.86568 15.6665 7.86581 15.6417V13.1666C7.86581 13.1329 7.88001 13.1001 7.90496 13.0771C7.91747 13.0658 7.93221 13.0572 7.94823 13.052C7.96425 13.0468 7.98119 13.045 7.99795 13.0467L9.34227 13.1779C9.40393 13.1843 9.45139 13.2361 9.45139 13.2978C9.45143 13.3243 9.45047 15.8987 9.45143 16.0148ZM9.45143 10.5809C9.45137 10.6112 9.43991 10.6404 9.41933 10.6626C9.39874 10.6848 9.37055 10.6985 9.34036 10.7009L7.996 10.812C7.9926 10.812 7.98916 10.8125 7.9862 10.8125C7.95585 10.8124 7.92665 10.8009 7.90448 10.7801C7.8921 10.7688 7.88223 10.7551 7.87549 10.7397C7.86875 10.7244 7.86529 10.7078 7.86533 10.691V8.21596C7.86533 8.18931 7.87417 8.16342 7.89047 8.14233C7.90676 8.12125 7.92959 8.10617 7.95537 8.09946L9.29969 7.74603C9.33592 7.73623 9.3741 7.74407 9.40393 7.76706C9.43375 7.79006 9.45091 7.82534 9.45091 7.86253V10.5809H9.45143V10.5809ZM9.45143 5.14666C9.45143 5.19461 9.42304 5.23768 9.3795 5.2568L8.03518 5.85256C8.01982 5.85957 8.00311 5.86308 7.98624 5.86284C7.96282 5.86269 7.93992 5.85591 7.92019 5.84328C7.90334 5.83229 7.88949 5.81727 7.87992 5.79957C7.87035 5.78187 7.86535 5.76206 7.86537 5.74194V3.26731C7.86537 3.22524 7.88692 3.18652 7.92215 3.16452L9.26651 2.32696C9.28474 2.31551 9.3057 2.30915 9.32721 2.30855C9.34873 2.30794 9.37001 2.31311 9.38885 2.32352C9.40766 2.33404 9.42333 2.34938 9.43425 2.36797C9.44517 2.38655 9.45095 2.40771 9.45099 2.42926V5.14666H9.45143ZM14.7955 3.79212C14.7955 3.75148 14.8161 3.71381 14.8498 3.69129C14.8665 3.68031 14.8856 3.67362 14.9055 3.67183C14.9254 3.67004 14.9455 3.67319 14.9638 3.68101L16.3987 4.30173C16.4204 4.31113 16.4388 4.32665 16.4518 4.34639C16.4647 4.36613 16.4716 4.38923 16.4716 4.41284V6.55651C16.4716 6.57537 16.4672 6.59398 16.4587 6.61081C16.4502 6.62765 16.4379 6.64225 16.4227 6.65341C16.4016 6.66909 16.3767 6.67741 16.3512 6.67741C16.3395 6.67741 16.3272 6.67545 16.316 6.67201L14.8811 6.23095C14.8565 6.22339 14.835 6.20814 14.8196 6.18744C14.8043 6.16675 14.796 6.14168 14.796 6.11593V3.79212H14.7955ZM14.7955 8.43829C14.7955 8.40254 14.8112 8.3683 14.8385 8.34578C14.8521 8.33449 14.868 8.32632 14.8851 8.32183C14.9022 8.31735 14.92 8.31666 14.9374 8.31983L16.3728 8.58123C16.4005 8.58632 16.4255 8.60096 16.4436 8.6226C16.4617 8.64423 16.4716 8.67151 16.4716 8.6997V10.8634C16.4716 10.8967 16.4579 10.929 16.433 10.952C16.4107 10.9729 16.3813 10.9844 16.3507 10.9843C16.3478 10.9843 16.3449 10.9838 16.3424 10.9838L14.9076 10.8815C14.8772 10.8794 14.8487 10.8659 14.8279 10.8436C14.8071 10.8214 14.7955 10.7921 14.7954 10.7616V8.43829H14.7955ZM11.06 2.17666C11.06 2.13602 11.0806 2.09835 11.1144 2.07583C11.1311 2.06492 11.1503 2.05831 11.1701 2.0566C11.19 2.05489 11.2101 2.05813 11.2284 2.06603L13.2667 2.94767C13.2883 2.95708 13.3068 2.97261 13.3197 2.99236C13.3327 3.0121 13.3396 3.0352 13.3396 3.05882V5.59412C13.3396 5.63231 13.3215 5.66855 13.2906 5.69106C13.2696 5.70674 13.2441 5.71506 13.2192 5.71506C13.2074 5.71506 13.1952 5.7131 13.1834 5.70966L11.1452 5.08307C11.1205 5.07563 11.0989 5.06041 11.0835 5.03969C11.0682 5.01896 11.0599 4.99383 11.06 4.96804V2.17666ZM11.06 10.5476V7.7573C11.06 7.72155 11.0757 7.68731 11.1031 7.6648C11.1167 7.65348 11.1325 7.64528 11.1496 7.64079C11.1667 7.63631 11.1846 7.63564 11.202 7.63884L13.2402 8.01043C13.268 8.0156 13.2931 8.03031 13.3113 8.05202C13.3294 8.07373 13.3394 8.10109 13.3395 8.12937V10.6646C13.3395 10.6805 13.3364 10.6962 13.3304 10.7109C13.3243 10.7256 13.3154 10.7389 13.3042 10.7501C13.2929 10.7614 13.2796 10.7703 13.265 10.7763C13.2503 10.7824 13.2346 10.7855 13.2187 10.7855C13.2162 10.7855 13.2138 10.7855 13.2118 10.7851L11.1736 10.6686C11.1429 10.6666 11.114 10.653 11.093 10.6305C11.0719 10.6081 11.0601 10.5784 11.06 10.5476ZM15.0367 18.8928C15.0367 18.9172 15.0292 18.941 15.0153 18.9611C15.0014 18.9812 14.9818 18.9966 14.959 19.0053L12.2913 20.0197C12.2777 20.0249 12.2633 20.0275 12.2488 20.0275C12.2244 20.0274 12.2005 20.0201 12.1802 20.0064C12.1642 19.9953 12.1511 19.9805 12.142 19.9632C12.133 19.9459 12.1283 19.9266 12.1284 19.9071V13.2651C12.1283 13.2345 12.1399 13.205 12.1608 13.1826C12.1817 13.1602 12.2104 13.1466 12.2409 13.1446L14.9086 12.964C14.9251 12.9629 14.9416 12.9652 14.9572 12.9707C14.9727 12.9763 14.987 12.985 14.9991 12.9963C15.0235 13.0188 15.0373 13.0506 15.0373 13.0844V18.8928H15.0367ZM18.2515 17.6698C18.2516 17.6943 18.2442 17.7182 18.2303 17.7384C18.2164 17.7585 18.1966 17.7739 18.1737 17.7824L16.3938 18.4595C16.3801 18.4649 16.3655 18.4677 16.3507 18.4678C16.3263 18.4675 16.3025 18.46 16.2822 18.4463C16.2662 18.4351 16.2532 18.4202 16.2441 18.4029C16.2351 18.3856 16.2304 18.3664 16.2303 18.3469V12.9875C16.2303 12.9238 16.2793 12.8715 16.3429 12.8671L18.1228 12.7466C18.1392 12.7454 18.1558 12.7476 18.1714 12.7531C18.1869 12.7585 18.2012 12.7672 18.2133 12.7785C18.2254 12.7897 18.235 12.8033 18.2416 12.8185C18.2482 12.8337 18.2515 12.85 18.2515 12.8665V17.6698ZM18.7658 10.975C18.7658 10.9915 18.7624 11.0079 18.7559 11.023C18.7493 11.0382 18.7397 11.0518 18.7276 11.0631C18.7051 11.0842 18.6753 11.0959 18.645 11.0959H18.6381L17.5732 11.0347C17.5425 11.0329 17.5136 11.0195 17.4925 10.9971C17.4714 10.9747 17.4597 10.9451 17.4597 10.9143V8.92391C17.4597 8.88815 17.4758 8.85392 17.5027 8.83088C17.5164 8.81968 17.5324 8.81157 17.5496 8.80709C17.5667 8.80262 17.5846 8.80188 17.602 8.80492L18.6664 8.99926C18.6942 9.00423 18.7194 9.01882 18.7376 9.04047C18.7557 9.06212 18.7657 9.08946 18.7658 9.11772V10.975H18.7658ZM18.7658 7.26141C18.7658 7.29961 18.7477 7.33584 18.7169 7.35836C18.6958 7.37404 18.6704 7.38235 18.6454 7.38235C18.6337 7.38235 18.6214 7.38039 18.6097 7.37648L17.5453 7.04948C17.5207 7.04191 17.4991 7.02666 17.4838 7.00596C17.4685 6.98526 17.4602 6.96021 17.4601 6.93446V4.944C17.4601 4.90337 17.4807 4.86569 17.5144 4.84318C17.5482 4.82066 17.5913 4.81722 17.6285 4.83338L18.6934 5.29356C18.715 5.30295 18.7335 5.31847 18.7464 5.33821C18.7594 5.35795 18.7663 5.38105 18.7663 5.40466V7.26145H18.7658V7.26141ZM20.8936 14.2789C20.8937 14.3069 20.8839 14.3341 20.866 14.3557C20.8482 14.3773 20.8233 14.392 20.7958 14.3973L20.0221 14.5466C20.0142 14.5481 20.0069 14.5486 19.9996 14.5486C19.9715 14.5486 19.9443 14.5387 19.9227 14.5207C19.909 14.5095 19.898 14.4954 19.8905 14.4794C19.883 14.4634 19.8791 14.4459 19.8792 14.4282V12.7408C19.8792 12.6772 19.9281 12.6248 19.9917 12.6204L20.7655 12.568C20.7819 12.567 20.7985 12.5694 20.814 12.5749C20.8296 12.5805 20.8438 12.5891 20.856 12.6003C20.8805 12.6228 20.8942 12.6546 20.8942 12.6884V14.2789H20.8936V14.2789ZM20.8936 11.0974C20.8935 11.1293 20.8807 11.16 20.8581 11.1825C20.8354 11.2051 20.8048 11.2177 20.7728 11.2178H20.7659L19.9922 11.1732C19.9615 11.1714 19.9327 11.158 19.9116 11.1356C19.8905 11.1132 19.8787 11.0836 19.8787 11.0528V9.36545C19.8787 9.32973 19.8944 9.29594 19.9217 9.27294C19.9353 9.26165 19.9512 9.25345 19.9683 9.24888C19.9853 9.24432 20.0032 9.24351 20.0206 9.2465L20.7938 9.38748C20.8217 9.39258 20.8469 9.40727 20.865 9.429C20.8831 9.45073 20.8931 9.47812 20.8932 9.50643V11.0974H20.8936ZM22.2018 14.0263C22.2018 14.0543 22.192 14.0815 22.1741 14.1031C22.1563 14.1248 22.1314 14.1395 22.1039 14.1448L21.4849 14.2642C21.4775 14.2656 21.4699 14.2662 21.4624 14.2661C21.4343 14.2662 21.4071 14.2563 21.3855 14.2383C21.3719 14.227 21.3609 14.2129 21.3533 14.1969C21.3458 14.1809 21.3419 14.1634 21.342 14.1458V12.6409C21.3421 12.6104 21.3538 12.5811 21.3747 12.5588C21.3956 12.5366 21.4241 12.5231 21.4545 12.521L22.0731 12.4789C22.0896 12.4778 22.1061 12.4801 22.1216 12.4856C22.1372 12.4911 22.1515 12.4996 22.1637 12.5107C22.1758 12.5221 22.1854 12.5358 22.1919 12.5511C22.1985 12.5663 22.2019 12.5827 22.2018 12.5993V14.0263H22.2018ZM22.2018 11.1718C22.2018 11.2051 22.1881 11.2369 22.1641 11.2599C22.1417 11.281 22.1122 11.2927 22.0814 11.2927C22.079 11.2927 22.077 11.2927 22.0746 11.2922L21.456 11.257C21.4253 11.2552 21.3964 11.2418 21.3752 11.2194C21.3541 11.197 21.3424 11.1673 21.3424 11.1365V9.65129C21.3424 9.63389 21.3461 9.61668 21.3533 9.60085C21.3605 9.58501 21.371 9.57092 21.3842 9.55953C21.3973 9.54814 21.4128 9.53973 21.4295 9.53487C21.4462 9.53 21.4637 9.5288 21.4809 9.53134L22.1 9.62485C22.1285 9.62916 22.1546 9.64359 22.1734 9.66553C22.1922 9.68747 22.2024 9.71543 22.2023 9.74432V11.1718L22.2018 11.1718Z" fill="#B8AA94"/>
</svg>
