<svg width="30" height="16" viewBox="0 0 30 16" fill="none" xmlns="http://www.w3.org/2000/svg">
    <path d="M14.2251 0.592773C14.9369 0.626961 15.646 0.69055 16.3673 0.819779C18.9758 1.28678 20.3584 2.00267 23.1706 2.89906L25.0448 9.89178C24.718 10.1995 23.7033 11.0384 22.29 11.1362C22.3809 10.8942 22.4007 10.6166 22.3453 10.3191C22.266 9.8952 22.0308 9.4282 21.6301 8.98034C21.4209 8.74787 21.2267 8.58513 20.9956 8.39095L14.4692 2.90932C14.3556 2.8132 14.2279 2.73524 14.0904 2.67821C13.6939 2.51548 13.2754 2.55924 12.8857 2.73155C12.5199 2.89359 12.1787 3.17051 11.9099 3.49051C11.1441 4.40195 11.1407 5.75919 9.65631 6.15714C9.46828 6.20842 9.30076 6.21457 9.17221 6.1797C9.07649 6.15372 9.00606 6.10449 8.97392 6.03406C8.86452 5.79748 9.38964 4.86143 9.45597 4.58041C9.52776 4.27956 9.564 3.95409 9.56263 3.71409C9.54554 1.59447 12.6156 0.69055 14.2258 0.592773H14.2251Z" fill="#B8AA94"/>
    <path d="M14.676 15.1165C14.599 15.2367 14.4857 15.3294 14.3526 15.3811C14.2165 15.4337 14.0586 15.4481 13.8924 15.4276C13.6538 15.3935 13.426 15.3061 13.2258 15.1718L4.6748 9.59243L6.46623 2.90809L9.64909 1.99254C9.25798 2.4698 9.02004 3.0421 9.02482 3.71833C9.02688 3.91525 8.99474 4.19217 8.93183 4.45678C8.79098 5.04891 8.20706 5.65129 8.48466 6.25778C8.58791 6.48273 8.78141 6.63247 9.03303 6.69948C9.25115 6.75828 9.51439 6.75282 9.79473 6.6776C11.5725 6.20034 11.5014 4.81301 12.3219 3.83593C12.5407 3.57611 12.8142 3.35184 13.102 3.22466C13.366 3.10842 13.6395 3.07424 13.8863 3.17543C13.9663 3.20825 14.0456 3.2568 14.1236 3.32244L19.413 7.76477C19.9594 8.22288 20.7368 8.78834 21.2298 9.33808C21.5621 9.70935 21.7549 10.084 21.8164 10.4157C21.934 11.044 21.5833 11.3955 20.9864 11.4276C20.7197 11.4413 20.3983 11.3948 20.0216 11.2717L16.6869 8.28442C16.6333 8.24172 16.5653 8.22116 16.4969 8.22696C16.4286 8.23276 16.365 8.26448 16.3193 8.31561C16.2736 8.36675 16.2492 8.43343 16.251 8.502C16.2529 8.57057 16.2809 8.63583 16.3293 8.68441L19.6312 11.6423C19.8814 13.7442 18.0941 13.2731 17.7727 13.1719L14.7191 10.3958C14.6663 10.3478 14.5966 10.3227 14.5253 10.326C14.454 10.3293 14.387 10.3608 14.3389 10.4136C14.2909 10.4664 14.2658 10.5361 14.2691 10.6074C14.2724 10.6787 14.3039 10.7457 14.3567 10.7938L17.2791 13.4502C17.5491 13.9014 16.5666 15.1698 15.2476 14.4471L12.7437 12.2912C12.7173 12.2666 12.6862 12.2477 12.6523 12.2354C12.6183 12.2231 12.5823 12.2178 12.5462 12.2198C12.5102 12.2217 12.4749 12.2309 12.4425 12.2468C12.4102 12.2627 12.3813 12.285 12.3577 12.3123C12.3341 12.3395 12.3162 12.3713 12.3051 12.4056C12.294 12.44 12.29 12.4762 12.2932 12.5121C12.2965 12.5481 12.3069 12.583 12.3239 12.6148C12.3409 12.6466 12.3642 12.6747 12.3923 12.6973L14.7683 14.7431C14.862 14.8238 14.7321 15.0303 14.676 15.1165ZM4.11686 9.59517C4.10338 9.62356 4.09504 9.65412 4.09225 9.68542L3.98627 10.0813C3.92268 10.3193 3.76747 10.51 3.56781 10.6249C3.46596 10.684 3.35344 10.7225 3.2367 10.7381C3.11996 10.7537 3.00129 10.7461 2.88748 10.7158L0.665291 10.1203C0.551579 10.09 0.444963 10.0376 0.351564 9.96602C0.258164 9.89445 0.179819 9.80513 0.121026 9.7032C0.0617265 9.60103 0.0232233 9.48814 0.00773348 9.37102C-0.00775639 9.25391 7.29993e-05 9.13489 0.0307708 9.02082C0.031983 9.01628 0.0331227 9.01172 0.0341896 9.00714L2.27005 0.665383C2.33296 0.426754 2.48885 0.236672 2.68783 0.121118C2.78968 0.0619756 2.90219 0.0241849 3.01893 0.00858039C3.13568 -0.00702409 3.25435 0.000547878 3.36816 0.0308631L5.59103 0.625726C5.82898 0.689999 6.01974 0.845894 6.13461 1.04487C6.19375 1.14672 6.23223 1.25923 6.24783 1.37597C6.26344 1.49271 6.25587 1.61139 6.22555 1.7252L5.99718 2.57647C5.98276 2.60673 5.97418 2.63943 5.97188 2.67287L4.11686 9.59517ZM25.6229 9.9726C25.6246 9.91904 25.6103 9.86618 25.5818 9.8208L23.6742 2.70091C23.6759 2.64871 23.6623 2.59716 23.6352 2.55254L23.413 1.7252C23.3828 1.61134 23.3753 1.49265 23.391 1.37591C23.4068 1.25916 23.4454 1.14667 23.5046 1.04487H23.5039C23.6188 0.84521 23.8096 0.689315 24.0475 0.625726L26.2697 0.0301791C26.3835 -0.000136149 26.5022 -0.00770811 26.6189 0.00789637C26.7357 0.0235008 26.8482 0.0619756 26.95 0.121118C27.1497 0.235988 27.3056 0.426071 27.3692 0.6647L29.6091 9.0256C29.6394 9.13931 29.6469 9.25786 29.6313 9.37447C29.6157 9.49109 29.5772 9.60349 29.5182 9.70525C29.4597 9.80747 29.3822 9.89712 29.2889 9.96905C29.1956 10.041 29.089 10.0938 28.9753 10.1244L26.7531 10.7199C26.6392 10.7503 26.5204 10.758 26.4035 10.7424C26.2867 10.7268 26.174 10.6882 26.0721 10.629C25.97 10.5704 25.8805 10.4922 25.8087 10.3989C25.7369 10.3056 25.6842 10.1991 25.6536 10.0854L25.6229 9.9726Z" fill="#B8AA94"/>
</svg>