<svg width="24" height="23" viewBox="0 0 24 23" fill="none" xmlns="http://www.w3.org/2000/svg">
<path d="M4.19531 9.78906H14.0426V12.5859H4.19531V9.78906Z" fill="#022858"/>
<path d="M0 16.7813H23.8667V5.59375H0V16.7813ZM2.79688 8.39063H15.4411V13.9844H2.79688V8.39063ZM21.0581 0H23.8667V4.19531H21.0581V0ZM0 22.375H2.80853V19.5781H4.20697V22.375H5.61706V19.5781H7.0155V22.375H8.42559V19.5781H9.82402V22.375H11.2341V19.5781H12.6326V22.375H14.0426V19.5781H15.4411V22.375H16.8512V19.5781H18.2496V22.375H19.6597V19.5781H21.0581V22.375H23.8667V18.1797H0V22.375ZM15.4411 0H19.6597V4.19531H15.4411V0ZM14.0426 0H12.6326V2.79688H11.2341V0H9.82402V2.79688H8.42559V0H7.0155V2.79688H5.61706V0H4.20697V2.79688H2.80853V0H0V4.19531H14.0426V0Z" fill="#022858"/>
</svg>
